<?xml version="1.0" encoding="utf-8"?>
<!-- Generator: Adobe Illustrator 21.1.0, SVG Export Plug-In . SVG Version: 6.00 Build 0)  -->
<svg version="1.1" id="Layer_1" xmlns="http://www.w3.org/2000/svg" xmlns:xlink="http://www.w3.org/1999/xlink" x="0px" y="0px"
	 viewBox="0 0 343 142" style="enable-background:new 0 0 343 142;" xml:space="preserve">
<style type="text/css">
	.st0{fill:#8C8C8C;}
	.st1{fill:#FFFFFF;}
	.st2{fill:none;stroke:#FFFFFF;stroke-miterlimit:10;}
</style>
<g>
	<g>
		<defs>
			<path id="SVGID_1_" d="M279.9,41.1c1-1.2,0.9-3-0.3-4c-1.2-1-3-0.9-4,0.3c-1,1.2-0.9,3,0.3,4C277,42.5,278.9,42.3,279.9,41.1
				 M284.1,46.9c1.4-0.7,2.1-2.4,1.4-3.8c-0.7-1.4-2.4-2.1-3.8-1.4c-1.4,0.7-2.1,2.4-1.4,3.8C281,47,282.7,47.6,284.1,46.9z
				 M285.5,48.3c-1.6,0-2.9,1.3-2.9,2.8c0,1.6,1.3,2.9,2.8,2.9c1.6,0,2.9-1.3,2.9-2.8C288.4,49.6,287.1,48.3,285.5,48.3z
				 M283.7,60.9c1.4,0.7,3.1,0.1,3.8-1.4c0.7-1.4,0.1-3.1-1.4-3.8c-1.4-0.7-3.1-0.1-3.8,1.4C281.7,58.5,282.3,60.2,283.7,60.9z
				 M283.8,66.2c1.2-1.1,1.3-2.9,0.2-4c-1.1-1.2-2.9-1.3-4.1-0.2c-1.2,1.1-1.3,2.9-0.2,4.1C280.8,67.2,282.6,67.3,283.8,66.2z
				 M275.5,65.7c-1.5,0.5-2.3,2.1-1.8,3.6c0.5,1.5,2.1,2.3,3.6,1.8c1.5-0.5,2.3-2.1,1.9-3.6C278.6,66.1,277,65.2,275.5,65.7z
				 M285.3,74.2c1.1-0.8,1.2-2.4,0.4-3.5c-0.8-1.1-2.4-1.2-3.5-0.4c-1.1,0.8-1.2,2.4-0.4,3.5C282.7,74.9,284.2,75.1,285.3,74.2z
				 M295.2,54.1c0-1.4-1-2.5-2.4-2.5c-1.4,0-2.5,1-2.5,2.4c0,1.4,1,2.5,2.4,2.5C294.1,56.5,295.2,55.5,295.2,54.1z M290.9,63.3
				c1.3,0.4,2.7-0.3,3.1-1.6c0.4-1.3-0.3-2.7-1.6-3.1c-1.3-0.4-2.7,0.3-3.1,1.6C288.9,61.5,289.6,62.8,290.9,63.3z M291,68
				c0.7-1.1,0.4-2.7-0.7-3.4c-1.1-0.7-2.7-0.4-3.4,0.7c-0.7,1.1-0.4,2.7,0.7,3.4C288.7,69.4,290.2,69.1,291,68z M292.2,48.7
				c1.3-0.4,2-1.8,1.6-3.1c-0.4-1.3-1.8-2-3.1-1.6c-1.3,0.4-2,1.8-1.6,3.1C289.5,48.4,290.9,49.1,292.2,48.7z M289.5,37.5
				c-0.8-1.1-2.4-1.3-3.5-0.4c-1.1,0.8-1.3,2.4-0.4,3.5c0.8,1.1,2.4,1.3,3.5,0.4C290.2,40.2,290.3,38.6,289.5,37.5z M280.6,35.9
				c1.1,0.8,2.7,0.5,3.4-0.7c0.8-1.1,0.5-2.7-0.7-3.4c-1.1-0.8-2.7-0.5-3.4,0.7C279.1,33.6,279.4,35.1,280.6,35.9z M284.6,30.5
				c1,0.7,2.3,0.4,3-0.6c0.7-1,0.4-2.3-0.6-3c-1-0.7-2.3-0.4-3,0.6C283.3,28.5,283.6,29.8,284.6,30.5z M291.7,33.8
				c0.8-0.8,0.8-2.2,0-3c-0.8-0.8-2.2-0.8-3,0c-0.8,0.8-0.8,2.2,0,3C289.5,34.7,290.9,34.7,291.7,33.8z M292.2,38.1
				c0.6,1,2,1.3,3,0.6c1-0.6,1.3-2,0.6-3c-0.6-1-2-1.3-3-0.6C291.8,35.8,291.6,37.1,292.2,38.1z M295.7,39.8
				c-1.1,0.5-1.6,1.7-1.1,2.8c0.5,1.1,1.7,1.6,2.8,1.1c1.1-0.5,1.6-1.7,1.1-2.8C298.1,39.8,296.8,39.3,295.7,39.8z M296.1,48
				c0.3,1.2,1.4,1.9,2.6,1.6c1.2-0.3,1.9-1.4,1.6-2.6c-0.3-1.2-1.4-1.9-2.6-1.6C296.6,45.7,295.9,46.8,296.1,48z M301.1,53.9
				c0-1.2-0.9-2.2-2.1-2.2c-1.2,0-2.1,0.9-2.2,2.1c0,1.2,0.9,2.2,2.1,2.2C300.1,56.1,301.1,55.1,301.1,53.9z M300.4,60.2
				c0.2-1.2-0.5-2.3-1.7-2.5c-1.2-0.2-2.3,0.5-2.5,1.7c-0.2,1.2,0.5,2.3,1.7,2.5C299.1,62.1,300.2,61.4,300.4,60.2z M295.9,67.1
				c1.1,0.5,2.3-0.1,2.8-1.2c0.4-1.1-0.1-2.3-1.2-2.8c-1.1-0.5-2.3,0.1-2.8,1.2C294.2,65.4,294.8,66.7,295.9,67.1z M295.4,71.9
				c0.7-1,0.4-2.3-0.6-3c-1-0.7-2.3-0.4-3,0.6c-0.7,1-0.4,2.3,0.6,3C293.4,73.1,294.8,72.9,295.4,71.9z M291.5,76.6
				c0.8-0.8,0.9-2.2,0-3c-0.8-0.8-2.2-0.8-3,0c-0.8,0.8-0.8,2.2,0,3C289.3,77.4,290.7,77.4,291.5,76.6z M284.2,77
				c-1,0.6-1.3,2-0.7,3c0.6,1,2,1.3,3,0.7c1-0.6,1.3-2,0.7-3C286.5,76.7,285.2,76.4,284.2,77z M292.4,27.5c0.7-0.7,0.7-1.9,0-2.6
				c-0.7-0.7-1.9-0.7-2.6,0c-0.7,0.7-0.7,1.9,0,2.6C290.5,28.2,291.7,28.2,292.4,27.5z M297,32.6c0.8-0.6,1.1-1.7,0.5-2.5
				c-0.6-0.8-1.7-1.1-2.5-0.5c-0.8,0.6-1.1,1.7-0.5,2.5C295.1,33,296.2,33.2,297,32.6z M298.2,37.6c0.4,0.9,1.4,1.4,2.4,1
				c0.9-0.4,1.4-1.4,1-2.4c-0.4-0.9-1.4-1.4-2.4-1C298.3,35.6,297.8,36.6,298.2,37.6z M302.8,44.8c1-0.2,1.6-1.2,1.4-2.1
				c-0.2-1-1.2-1.6-2.1-1.4c-1,0.2-1.6,1.2-1.4,2.1C300.9,44.4,301.9,45,302.8,44.8z M303.9,48.3c-1,0-1.8,0.8-1.8,1.8
				c0,1,0.8,1.8,1.8,1.8c1,0,1.8-0.8,1.8-1.8C305.8,49.1,305,48.3,303.9,48.3z M305.6,58.2c0.2-1-0.4-2-1.4-2.2
				c-1-0.2-2,0.4-2.2,1.4c-0.2,1,0.4,2,1.4,2.2C304.4,59.8,305.4,59.2,305.6,58.2z M301.8,65.9c0.9,0.4,2,0,2.4-0.9
				c0.4-0.9,0-2-0.9-2.4c-0.9-0.4-2,0-2.4,0.9C300.4,64.4,300.8,65.5,301.8,65.9z M301.4,71.3c0.6-0.8,0.3-2-0.5-2.5
				c-0.8-0.6-2-0.3-2.5,0.5c-0.6,0.8-0.4,2,0.5,2.5C299.7,72.3,300.9,72.1,301.4,71.3z M297.1,77.6c0.7-0.7,0.7-1.9,0-2.6
				c-0.7-0.7-1.9-0.7-2.6,0c-0.7,0.7-0.8,1.9,0,2.6C295.2,78.3,296.4,78.3,297.1,77.6z M290,79.6c-0.8,0.5-1.1,1.7-0.5,2.5
				c0.5,0.8,1.7,1.1,2.5,0.5c0.8-0.5,1.1-1.7,0.5-2.5C292,79.3,290.8,79,290,79.6z M290.6,21c0.8,0.5,1.9,0.3,2.4-0.5
				c0.5-0.8,0.3-1.9-0.5-2.4c-0.8-0.5-1.9-0.3-2.4,0.5C289.6,19.4,289.8,20.4,290.6,21z M299.1,25.9c0.7-0.7,0.7-1.8,0-2.5
				c-0.7-0.7-1.8-0.7-2.5,0c-0.7,0.7-0.7,1.8,0,2.5C297.3,26.6,298.4,26.6,299.1,25.9z M304.2,32.8c0.8-0.5,1-1.6,0.5-2.4
				c-0.5-0.8-1.6-1-2.4-0.5c-0.8,0.5-1,1.6-0.5,2.4C302.3,33.1,303.4,33.4,304.2,32.8z M305,38.4c0.4,0.9,1.4,1.3,2.3,0.9
				c0.9-0.4,1.3-1.4,0.9-2.3c-0.4-0.9-1.4-1.3-2.3-0.9C305.1,36.5,304.7,37.5,305,38.4z M309.3,46.8c0.9-0.2,1.5-1.1,1.3-2.1
				c-0.2-0.9-1.1-1.5-2.1-1.3c-0.9,0.2-1.5,1.1-1.3,2.1C307.4,46.4,308.3,47,309.3,46.8z M309.8,51.4c-1,0-1.7,0.8-1.7,1.7
				c0,1,0.8,1.7,1.7,1.7c1,0,1.7-0.8,1.7-1.7C311.5,52.2,310.8,51.4,309.8,51.4z M308.6,63.6c0.9,0.2,1.9-0.4,2.1-1.3
				c0.2-0.9-0.4-1.9-1.3-2.1c-0.9-0.2-1.9,0.4-2.1,1.3C307.1,62.5,307.7,63.4,308.6,63.6z M307.3,67.9c-0.9-0.4-1.9,0-2.3,0.9
				c-0.4,0.9,0,1.9,0.9,2.3c0.9,0.4,1.9,0,2.3-0.9C308.6,69.3,308.2,68.3,307.3,67.9z M304.4,77.3c0.5-0.8,0.3-1.9-0.5-2.4
				c-0.8-0.5-1.9-0.3-2.4,0.5c-0.5,0.8-0.3,1.9,0.5,2.4C302.7,78.3,303.8,78.1,304.4,77.3z M296.3,81.6c-0.7,0.7-0.7,1.8,0,2.5
				c0.7,0.7,1.8,0.7,2.5,0c0.7-0.7,0.7-1.8,0-2.5C298.1,81,297,81,296.3,81.6z M290.1,86.5c-0.8,0.5-1,1.6-0.5,2.4
				c0.5,0.8,1.6,1,2.4,0.5c0.8-0.5,1-1.6,0.5-2.4C292,86.3,290.9,86,290.1,86.5z M298.2,12.7c0.3-0.4,0.2-1-0.2-1.2
				c-0.4-0.3-1-0.2-1.2,0.2c-0.3,0.4-0.2,1,0.2,1.2C297.4,13.2,297.9,13.1,298.2,12.7z M305.4,19c0.4-0.3,0.4-0.9,0-1.3
				c-0.3-0.4-0.9-0.4-1.3,0c-0.4,0.3-0.4,0.9,0,1.3C304.5,19.3,305.1,19.3,305.4,19z M311.3,26.4c0.4-0.3,0.5-0.8,0.2-1.2
				c-0.3-0.4-0.8-0.5-1.2-0.2c-0.4,0.3-0.5,0.8-0.2,1.2C310.3,26.6,310.8,26.7,311.3,26.4z M315,33.4c-0.5,0.2-0.7,0.7-0.5,1.2
				c0.2,0.5,0.7,0.7,1.2,0.5c0.5-0.2,0.7-0.7,0.5-1.2C316,33.4,315.5,33.2,315,33.4z M318.3,43.9c0.5-0.1,0.8-0.6,0.7-1.1
				c-0.1-0.5-0.6-0.8-1.1-0.7c-0.5,0.1-0.8,0.6-0.7,1.1C317.3,43.7,317.8,44,318.3,43.9z M319.2,52c-0.5,0-0.9,0.4-0.9,0.9
				c0,0.5,0.4,0.9,0.9,0.9c0.5,0,0.9-0.4,0.9-0.9C320.1,52.4,319.7,52,319.2,52z M318.5,62.3c-0.5-0.1-0.9,0.2-1,0.7
				c-0.1,0.5,0.2,0.9,0.7,1c0.5,0.1,1-0.2,1-0.7C319.3,62.8,319,62.3,318.5,62.3z M315.3,73c-0.5-0.2-1,0-1.2,0.5
				c-0.2,0.4,0,1,0.5,1.2c0.4,0.2,1,0,1.2-0.5C316,73.8,315.8,73.2,315.3,73z M309.1,82.3c-0.3,0.4-0.2,1,0.2,1.2
				c0.4,0.3,1,0.2,1.2-0.2c0.3-0.4,0.2-1-0.2-1.2C310,81.8,309.4,81.9,309.1,82.3z M303.7,88.7c-0.4,0.3-0.4,0.9,0,1.3
				c0.3,0.3,0.9,0.4,1.3,0c0.4-0.3,0.4-0.9,0-1.3C304.6,88.4,304.1,88.4,303.7,88.7z M296.1,94.9c-0.4,0.3-0.5,0.8-0.3,1.2
				c0.3,0.4,0.8,0.5,1.2,0.3c0.4-0.3,0.5-0.8,0.3-1.2C297.1,94.7,296.5,94.6,296.1,94.9z M297.4,17.8c-0.4,0.4-0.4,1.1,0,1.6
				c0.4,0.4,1.1,0.4,1.6,0c0.4-0.4,0.4-1.1,0-1.6C298.5,17.3,297.8,17.3,297.4,17.8z M304.8,25.6c0.5-0.3,0.7-1,0.3-1.5
				c-0.3-0.5-1-0.7-1.5-0.3c-0.5,0.3-0.7,1-0.3,1.5C303.6,25.8,304.3,26,304.8,25.6z M309.8,33.6c0.6-0.2,0.8-0.9,0.6-1.4
				c-0.2-0.6-0.9-0.8-1.4-0.6c-0.6,0.2-0.8,0.9-0.6,1.4C308.6,33.5,309.2,33.8,309.8,33.6z M311.4,40.3c0.1,0.6,0.7,1,1.3,0.9
				c0.6-0.1,1-0.7,0.9-1.3c-0.1-0.6-0.7-1-1.3-0.9C311.7,39.2,311.3,39.7,311.4,40.3z M314.2,46.9c-0.6,0-1.1,0.5-1.1,1.1
				c0,0.6,0.5,1.1,1.1,1.1c0.6,0,1.1-0.5,1.1-1.1C315.3,47.4,314.8,46.9,314.2,46.9z M313.3,57.4c-0.1,0.6,0.3,1.2,0.9,1.3
				c0.6,0.1,1.2-0.3,1.3-0.9c0.1-0.6-0.3-1.2-0.9-1.3C314,56.4,313.4,56.8,313.3,57.4z M313.1,65.6c-0.6-0.2-1.2,0-1.5,0.6
				c-0.2,0.6,0,1.2,0.6,1.5c0.6,0.2,1.2,0,1.5-0.6C313.9,66.5,313.6,65.9,313.1,65.6z M309.9,76.1c0.3-0.5,0.2-1.2-0.3-1.5
				c-0.5-0.3-1.2-0.2-1.5,0.3c-0.3,0.5-0.2,1.2,0.3,1.5C308.9,76.7,309.5,76.6,309.9,76.1z M304.8,83.5c0.4-0.4,0.4-1.1,0-1.6
				c-0.4-0.4-1.1-0.4-1.6,0c-0.4,0.4-0.4,1.1,0,1.6C303.7,83.9,304.4,83.9,304.8,83.5z M296.9,88.2c-0.5,0.3-0.7,1-0.3,1.5
				c0.3,0.5,1,0.7,1.5,0.3c0.5-0.3,0.7-1,0.3-1.5C298.1,88,297.4,87.9,296.9,88.2z"/>
		</defs>
		<linearGradient id="SVGID_2_" gradientUnits="userSpaceOnUse" x1="273.6487" y1="53.8961" x2="320.114" y2="53.8961">
			<stop  offset="0" style="stop-color:#8C8C8C"/>
			<stop  offset="1" style="stop-color:#FFFFFF"/>
		</linearGradient>
		<use xlink:href="#SVGID_1_"  style="overflow:visible;fill:url(#SVGID_2_);"/>
		<clipPath id="SVGID_3_">
			<use xlink:href="#SVGID_1_"  style="overflow:visible;"/>
		</clipPath>
	</g>
	<g>
		<path class="st0" d="M273.7,37.7c-0.4,1.5-2,2.4-3.5,2c-1.5-0.4-2.4-2-2-3.5c0.4-1.5,2-2.4,3.5-2
			C273.3,34.6,274.2,36.1,273.7,37.7"/>
		<path class="st0" d="M267.1,69.9c0.1-1.6,1.5-2.7,3.1-2.6c1.6,0.1,2.7,1.5,2.6,3.1c-0.1,1.6-1.5,2.7-3.1,2.6
			C268.1,72.9,266.9,71.5,267.1,69.9"/>
		<path class="st0" d="M260.9,67.9c0.7-1.4,2.5-1.9,3.9-1.2c1.4,0.7,1.9,2.5,1.2,3.9c-0.7,1.4-2.5,1.9-3.9,1.2
			C260.7,71.1,260.1,69.3,260.9,67.9"/>
		<path class="st0" d="M255.8,63.5c1.2-1,3-0.8,4,0.5c1,1.2,0.8,3-0.5,4c-1.2,1-3,0.8-4-0.5C254.3,66.3,254.5,64.5,255.8,63.5"/>
		<path class="st0" d="M252.9,57.4c1.5-0.4,3.1,0.5,3.5,2c0.4,1.5-0.5,3.1-2,3.5c-1.5,0.4-3.1-0.5-3.5-2
			C250.4,59.4,251.3,57.8,252.9,57.4"/>
		<path class="st0" d="M252.6,51c1.6,0.2,2.7,1.6,2.5,3.2c-0.2,1.6-1.6,2.7-3.2,2.5c-1.6-0.2-2.7-1.6-2.5-3.2
			C249.6,51.9,251,50.8,252.6,51"/>
		<path class="st0" d="M254.9,44.7c1.4,0.8,1.8,2.6,1,3.9c-0.8,1.4-2.6,1.8-3.9,1c-1.4-0.8-1.8-2.6-1-3.9
			C251.8,44.3,253.6,43.9,254.9,44.7"/>
		<path class="st0" d="M259.6,39.8c0.9,1.3,0.6,3.1-0.7,4c-1.3,0.9-3.1,0.6-4-0.7c-0.9-1.3-0.6-3.1,0.7-4
			C256.9,38.3,258.7,38.6,259.6,39.8"/>
		<path class="st0" d="M266.5,37.1c0.3,1.6-0.8,3-2.4,3.3c-1.6,0.3-3-0.8-3.3-2.4c-0.3-1.6,0.8-3,2.4-3.3
			C264.8,34.5,266.3,35.6,266.5,37.1"/>
		<path class="st0" d="M271.4,77.5c0,1.4-1.1,2.5-2.5,2.5c-1.4,0-2.5-1.1-2.5-2.5c0-1.4,1.1-2.5,2.5-2.5
			C270.3,75,271.4,76.1,271.4,77.5"/>
		<path class="st0" d="M278.9,75.5c0.4,1.3-0.3,2.7-1.6,3.1c-1.3,0.4-2.7-0.3-3.1-1.6c-0.4-1.3,0.3-2.7,1.6-3.1
			C277,73.5,278.4,74.2,278.9,75.5"/>
		<path class="st0" d="M266.4,29.8c0-1.4,1.2-2.4,2.5-2.4c1.4,0,2.4,1.2,2.4,2.5c0,1.4-1.2,2.4-2.5,2.4
			C267.4,32.3,266.3,31.1,266.4,29.8"/>
		<path class="st0" d="M273.6,30c0.4-1.3,1.8-2,3.1-1.5c1.3,0.4,2,1.8,1.5,3.1c-0.4,1.3-1.8,2-3.1,1.5
			C273.9,32.7,273.2,31.3,273.6,30"/>
		<path class="st0" d="M259.1,31.8c-0.4-1.3,0.3-2.7,1.6-3.1c1.3-0.4,2.7,0.3,3.1,1.6c0.4,1.3-0.3,2.7-1.6,3.1
			C260.9,33.9,259.5,33.1,259.1,31.8"/>
		<path class="st0" d="M252.5,36.4c-0.8-1.1-0.6-2.6,0.5-3.4c1.1-0.8,2.6-0.6,3.4,0.5c0.8,1.1,0.6,2.6-0.5,3.4
			C254.8,37.7,253.3,37.5,252.5,36.4"/>
		<path class="st0" d="M245.5,48.9c-1.3-0.5-2-1.9-1.5-3.1c0.5-1.3,1.9-2,3.1-1.5c1.3,0.5,2,1.9,1.5,3.1
			C248.2,48.7,246.8,49.4,245.5,48.9"/>
		<path class="st0" d="M247.9,42c-1.1-0.8-1.4-2.3-0.6-3.4c0.8-1.1,2.3-1.4,3.4-0.6c1.1,0.8,1.4,2.3,0.6,3.4
			C250.5,42.5,249,42.8,247.9,42"/>
		<path class="st0" d="M245.1,56.3c-1.4-0.1-2.4-1.2-2.4-2.5c0.1-1.4,1.2-2.4,2.5-2.4c1.4,0,2.4,1.2,2.4,2.5
			C247.6,55.3,246.4,56.3,245.1,56.3"/>
		<path class="st0" d="M247,63.6c-1.3,0.4-2.7-0.4-3.1-1.7c-0.4-1.3,0.4-2.7,1.7-3.1c1.3-0.4,2.7,0.4,3.1,1.7
			C249.1,61.9,248.3,63.2,247,63.6"/>
		<path class="st0" d="M251.3,69.9c-1.1,0.8-2.6,0.6-3.4-0.5c-0.8-1.1-0.6-2.6,0.5-3.4c1.1-0.8,2.6-0.6,3.4,0.5
			C252.6,67.6,252.4,69.1,251.3,69.9"/>
		<path class="st0" d="M263.2,77.1c-0.5,1.3-1.9,1.9-3.2,1.5c-1.3-0.5-1.9-1.9-1.5-3.2c0.5-1.3,1.9-1.9,3.2-1.5
			C263,74.4,263.7,75.8,263.2,77.1"/>
		<path class="st0" d="M257,74.6c-0.8,1.1-2.3,1.4-3.4,0.6c-1.1-0.8-1.4-2.3-0.6-3.4c0.8-1.1,2.3-1.4,3.4-0.6
			C257.5,71.9,257.8,73.4,257,74.6"/>
		<path class="st0" d="M271.1,23.5c0,1.2-1,2.1-2.1,2.1c-1.2,0-2.1-1-2.1-2.1c0-1.2,1-2.1,2.1-2.1C270.1,21.4,271.1,22.3,271.1,23.5
			"/>
		<path class="st0" d="M277,24.5c-0.2,1.2-1.4,1.9-2.5,1.7c-1.2-0.2-1.9-1.4-1.7-2.5c0.2-1.2,1.4-1.9,2.5-1.7
			C276.4,22.2,277.2,23.4,277,24.5"/>
		<path class="st0" d="M282.2,26.5c-0.4,1.1-1.7,1.6-2.8,1.2c-1.1-0.4-1.6-1.7-1.2-2.8c0.4-1.1,1.7-1.6,2.8-1.2
			C282.1,24.2,282.7,25.4,282.2,26.5"/>
		<path class="st0" d="M238.8,51.6c1.2,0,2.1,0.9,2.2,2.1c0,1.2-0.9,2.1-2.1,2.2c-1.2,0-2.2-0.9-2.2-2.1
			C236.6,52.6,237.6,51.6,238.8,51.6"/>
		<path class="st0" d="M239.7,45.7c1.2,0.2,1.9,1.3,1.7,2.5c-0.2,1.2-1.3,1.9-2.5,1.7c-1.2-0.2-1.9-1.3-1.7-2.5
			C237.5,46.3,238.6,45.5,239.7,45.7"/>
		<path class="st0" d="M241.7,40.5c1.1,0.4,1.6,1.7,1.2,2.8c-0.4,1.1-1.7,1.6-2.8,1.2c-1.1-0.4-1.6-1.7-1.2-2.8
			C239.4,40.6,240.6,40,241.7,40.5"/>
		<path class="st0" d="M245,35.1c1,0.7,1.3,2,0.6,3c-0.7,1-2,1.3-3,0.6c-1-0.7-1.3-2-0.6-3C242.7,34.7,244,34.5,245,35.1"/>
		<path class="st0" d="M249,30.9c0.8,0.8,0.9,2.2,0,3c-0.8,0.8-2.2,0.9-3,0c-0.8-0.8-0.9-2.2,0-3C246.8,30.1,248.1,30.1,249,30.9"/>
		<path class="st0" d="M253.8,27.4c0.7,1,0.4,2.3-0.6,3c-1,0.7-2.3,0.4-3-0.6c-0.7-1-0.4-2.3,0.6-3
			C251.9,26.2,253.2,26.4,253.8,27.4"/>
		<path class="st0" d="M258.8,25.2c0.5,1.1,0,2.3-1.1,2.8c-1.1,0.5-2.3,0-2.8-1.1c-0.5-1.1,0-2.3,1.1-2.8
			C257.1,23.6,258.3,24.1,258.8,25.2"/>
		<path class="st0" d="M264.7,23.8c0.3,1.2-0.4,2.3-1.6,2.6c-1.2,0.3-2.3-0.4-2.6-1.6c-0.3-1.2,0.4-2.3,1.6-2.6
			C263.2,22,264.4,22.7,264.7,23.8"/>
		<path class="st0" d="M266.9,83.7c0-1.2,0.9-2.2,2.1-2.2c1.2,0,2.1,0.9,2.2,2.1c0,1.2-0.9,2.2-2.1,2.2
			C267.8,85.8,266.9,84.9,266.9,83.7"/>
		<path class="st0" d="M261,82.7c0.2-1.2,1.4-1.9,2.5-1.7c1.2,0.2,1.9,1.3,1.7,2.5c-0.2,1.2-1.3,1.9-2.5,1.7
			C261.6,85,260.8,83.9,261,82.7"/>
		<path class="st0" d="M255.7,80.8c0.4-1.1,1.7-1.6,2.8-1.2c1.1,0.4,1.6,1.7,1.2,2.8c-0.4,1.1-1.7,1.6-2.8,1.2
			C255.8,83.1,255.3,81.9,255.7,80.8"/>
		<path class="st0" d="M250.4,77.5c0.7-1,2-1.3,3-0.6c1,0.7,1.3,2,0.6,3c-0.7,1-2,1.3-3,0.6C250,79.8,249.7,78.4,250.4,77.5"/>
		<path class="st0" d="M246.2,73.5c0.8-0.8,2.2-0.9,3,0c0.8,0.8,0.9,2.2,0,3c-0.8,0.8-2.2,0.9-3,0C245.4,75.7,245.4,74.4,246.2,73.5
			"/>
		<path class="st0" d="M242.7,68.6c1-0.7,2.3-0.4,3,0.6c0.7,1,0.4,2.3-0.6,3c-1,0.7-2.3,0.4-3-0.6C241.4,70.6,241.7,69.3,242.7,68.6
			"/>
		<path class="st0" d="M240.4,63.7c1.1-0.5,2.4,0,2.8,1.1c0.5,1.1,0,2.3-1.1,2.8c-1.1,0.5-2.3,0-2.8-1.1
			C238.9,65.4,239.4,64.1,240.4,63.7"/>
		<path class="st0" d="M239.1,57.8c1.2-0.3,2.3,0.4,2.6,1.6c0.3,1.2-0.4,2.3-1.6,2.6c-1.2,0.3-2.3-0.4-2.6-1.6
			C237.2,59.2,237.9,58.1,239.1,57.8"/>
		<path class="st0" d="M278.5,82.2c-0.5-1.1,0.1-2.3,1.1-2.8c1.1-0.5,2.3,0.1,2.8,1.1c0.5,1.1-0.1,2.3-1.1,2.8
			C280.3,83.8,279,83.3,278.5,82.2"/>
		<path class="st0" d="M272.7,83.4c-0.3-1.2,0.5-2.3,1.6-2.6c1.2-0.3,2.3,0.5,2.6,1.6c0.3,1.2-0.5,2.3-1.6,2.6
			C274.1,85.3,272.9,84.6,272.7,83.4"/>
		<path class="st0" d="M266.8,18.4c0,1-0.8,1.8-1.8,1.8c-1,0-1.8-0.8-1.8-1.8c0-1,0.8-1.8,1.8-1.8C266,16.6,266.8,17.4,266.8,18.4"
			/>
		<path class="st0" d="M275,18.9c-0.2,1-1.2,1.6-2.2,1.4c-1-0.2-1.6-1.2-1.4-2.2c0.2-1,1.2-1.6,2.2-1.4C274.6,17,275.2,18,275,18.9"
			/>
		<path class="st0" d="M281.3,20.7c-0.4,0.9-1.5,1.3-2.4,0.9c-0.9-0.4-1.3-1.5-0.9-2.4c0.4-0.9,1.5-1.3,2.4-0.9
			C281.3,18.7,281.7,19.8,281.3,20.7"/>
		<path class="st0" d="M287,23.5c-0.6,0.8-1.7,1-2.5,0.5c-0.8-0.6-1-1.7-0.5-2.5c0.6-0.8,1.7-1,2.5-0.5
			C287.3,21.5,287.5,22.6,287,23.5"/>
		<path class="st0" d="M283.8,85.5c-0.4-0.9,0.1-2,1-2.4c0.9-0.4,2,0.1,2.4,1c0.4,0.9-0.1,2-1,2.4C285.2,86.8,284.1,86.4,283.8,85.5
			"/>
		<path class="st0" d="M277.4,87.7c-0.2-1,0.5-2,1.4-2.1c1-0.2,1.9,0.4,2.1,1.4c0.2,1-0.5,1.9-1.4,2.1
			C278.5,89.4,277.6,88.7,277.4,87.7"/>
		<path class="st0" d="M270.8,88.8c0-1,0.8-1.8,1.8-1.8c1,0,1.8,0.8,1.8,1.8c0,1-0.8,1.8-1.8,1.8C271.7,90.6,270.8,89.8,270.8,88.8"
			/>
		<path class="st0" d="M263,88.4c0.2-1,1.2-1.6,2.2-1.4c1,0.2,1.6,1.2,1.4,2.2c-0.2,1-1.2,1.6-2.2,1.4
			C263.4,90.3,262.8,89.3,263,88.4"/>
		<path class="st0" d="M257.3,86.9c0.4-0.9,1.4-1.4,2.4-1c0.9,0.4,1.4,1.4,1,2.4c-0.4,0.9-1.4,1.4-2.4,1
			C257.3,88.9,256.9,87.8,257.3,86.9"/>
		<path class="st0" d="M249.7,83.3c0.6-0.8,1.7-1,2.5-0.4c0.8,0.6,1,1.7,0.4,2.5c-0.6,0.8-1.7,1-2.6,0.4
			C249.3,85.2,249.1,84.1,249.7,83.3"/>
		<path class="st0" d="M244.9,79.6c0.7-0.7,1.9-0.7,2.6,0c0.7,0.7,0.7,1.9,0,2.6c-0.7,0.7-1.9,0.7-2.6,0
			C244.2,81.4,244.2,80.3,244.9,79.6"/>
		<path class="st0" d="M240.3,74.5c0.8-0.5,2-0.3,2.5,0.5c0.6,0.8,0.3,2-0.5,2.5c-0.8,0.6-2,0.3-2.5-0.5
			C239.3,76.1,239.5,75,240.3,74.5"/>
		<path class="st0" d="M237.1,69.1c0.9-0.4,2,0,2.4,1c0.4,0.9,0,2-1,2.4c-0.9,0.4-2,0-2.4-1C235.7,70.6,236.2,69.5,237.1,69.1"/>
		<path class="st0" d="M234.9,63.5c1-0.2,2,0.4,2.2,1.4c0.2,1-0.4,2-1.4,2.2c-1,0.2-2-0.4-2.2-1.4C233.3,64.7,233.9,63.7,234.9,63.5
			"/>
		<path class="st0" d="M233.6,56c1,0,1.8,0.8,1.9,1.8c0,1-0.8,1.8-1.8,1.8c-1,0-1.8-0.8-1.9-1.8C231.8,56.8,232.6,56,233.6,56"/>
		<path class="st0" d="M233.9,48.6c1,0.2,1.6,1.2,1.4,2.1c-0.2,1-1.2,1.6-2.1,1.4c-1-0.2-1.6-1.2-1.4-2.1
			C231.9,49,232.9,48.4,233.9,48.6"/>
		<path class="st0" d="M235.5,41.8c0.9,0.4,1.4,1.5,1,2.4c-0.4,0.9-1.5,1.4-2.4,1c-0.9-0.4-1.4-1.5-1-2.4
			C233.5,41.8,234.6,41.4,235.5,41.8"/>
		<path class="st0" d="M238.6,35.3c0.8,0.6,1,1.7,0.5,2.5c-0.6,0.8-1.7,1-2.5,0.5c-0.8-0.6-1-1.7-0.5-2.5
			C236.6,35,237.8,34.8,238.6,35.3"/>
		<path class="st0" d="M243,29.5c0.7,0.7,0.7,1.9-0.1,2.6c-0.7,0.7-1.9,0.7-2.6-0.1c-0.7-0.7-0.7-1.9,0.1-2.6
			C241.2,28.7,242.3,28.8,243,29.5"/>
		<path class="st0" d="M247.9,25.2c0.6,0.8,0.3,2-0.5,2.5c-0.8,0.6-2,0.3-2.5-0.5c-0.5-0.8-0.3-2,0.5-2.5
			C246.2,24.1,247.3,24.4,247.9,25.2"/>
		<path class="st0" d="M253.4,21.9c0.4,0.9,0,2-1,2.4c-0.9,0.4-2,0-2.4-1c-0.4-0.9,0-2,1-2.4C251.9,20.5,253,21,253.4,21.9"/>
		<path class="st0" d="M259.9,19.5c0.2,1-0.4,2-1.4,2.2c-1,0.2-2-0.4-2.1-1.4c-0.2-1,0.4-2,1.4-2.2
			C258.8,17.9,259.7,18.5,259.9,19.5"/>
		<path class="st0" d="M262.4,13.2c0.2,0.9-0.4,1.9-1.4,2c-0.9,0.2-1.9-0.4-2-1.4c-0.2-0.9,0.4-1.9,1.4-2
			C261.3,11.6,262.2,12.2,262.4,13.2"/>
		<path class="st0" d="M270.7,12.7c0,1-0.8,1.7-1.7,1.7c-1,0-1.7-0.8-1.7-1.7c0-1,0.8-1.7,1.7-1.7C270,10.9,270.7,11.7,270.7,12.7"
			/>
		<path class="st0" d="M280.2,14.2c-0.2,0.9-1.2,1.5-2.1,1.3c-0.9-0.2-1.5-1.2-1.3-2.1c0.2-0.9,1.2-1.5,2.1-1.3
			C279.9,12.4,280.5,13.3,280.2,14.2"/>
		<path class="st0" d="M286.7,16.7c-0.4,0.9-1.4,1.3-2.3,0.9c-0.9-0.4-1.3-1.4-0.9-2.3c0.4-0.9,1.4-1.3,2.3-0.9
			C286.7,14.8,287.1,15.8,286.7,16.7"/>
		<path class="st0" d="M282.6,92.2c-0.4-0.9,0.1-1.9,1-2.3c0.9-0.4,1.9,0.1,2.3,1c0.4,0.9-0.1,1.9-1,2.3
			C284,93.5,283,93.1,282.6,92.2"/>
		<path class="st0" d="M275.2,94.1c-0.2-0.9,0.4-1.9,1.4-2c0.9-0.2,1.9,0.4,2,1.4c0.2,0.9-0.4,1.9-1.4,2
			C276.3,95.6,275.4,95,275.2,94.1"/>
		<path class="st0" d="M266.4,94.5c0-1,0.8-1.7,1.8-1.7c1,0,1.7,0.8,1.7,1.8c0,1-0.8,1.7-1.8,1.7C267.2,96.2,266.4,95.5,266.4,94.5"
			/>
		<path class="st0" d="M258.6,93.3c0.2-0.9,1.1-1.5,2.1-1.3c0.9,0.2,1.5,1.1,1.3,2.1c-0.2,0.9-1.1,1.5-2.1,1.3
			C259,95.1,258.4,94.2,258.6,93.3"/>
		<path class="st0" d="M250.9,90.4c0.4-0.9,1.4-1.3,2.3-0.9c0.9,0.4,1.3,1.4,0.9,2.3c-0.4,0.9-1.4,1.3-2.3,0.9
			C250.9,92.3,250.5,91.3,250.9,90.4"/>
		<path class="st0" d="M243.1,85.4c0.6-0.8,1.7-0.9,2.4-0.4c0.8,0.6,0.9,1.7,0.3,2.4c-0.6,0.8-1.7,0.9-2.4,0.4
			C242.7,87.3,242.5,86.2,243.1,85.4"/>
		<path class="st0" d="M238.4,81c0.7-0.7,1.8-0.7,2.5,0c0.7,0.7,0.7,1.8,0,2.5c-0.7,0.7-1.8,0.7-2.5,0
			C237.7,82.7,237.7,81.6,238.4,81"/>
		<path class="st0" d="M233.8,74.7c0.8-0.5,1.9-0.3,2.4,0.5c0.5,0.8,0.3,1.9-0.5,2.4c-0.8,0.5-1.9,0.3-2.4-0.5
			C232.7,76.3,233,75.2,233.8,74.7"/>
		<path class="st0" d="M230.8,68.6c0.9-0.4,1.9,0,2.3,0.9c0.4,0.9,0,1.9-0.9,2.3c-0.9,0.4-1.9,0-2.3-0.9
			C229.5,70.1,229.9,69,230.8,68.6"/>
		<path class="st0" d="M228.6,60.8c0.9-0.2,1.9,0.4,2.1,1.3c0.2,0.9-0.4,1.9-1.3,2.1c-0.9,0.2-1.9-0.4-2.1-1.3
			C227,61.9,227.6,61,228.6,60.8"/>
		<path class="st0" d="M227.9,52.3c1,0,1.7,0.8,1.8,1.7c0,1-0.8,1.7-1.7,1.7c-1,0-1.7-0.8-1.7-1.7C226.2,53.1,227,52.3,227.9,52.3"
			/>
		<path class="st0" d="M229.1,44c0.9,0.2,1.5,1.1,1.4,2c-0.2,0.9-1.1,1.5-2,1.4c-0.9-0.2-1.5-1.1-1.4-2
			C227.2,44.4,228.1,43.8,229.1,44"/>
		<path class="st0" d="M231.6,36.6c0.9,0.4,1.3,1.4,0.9,2.3c-0.4,0.9-1.4,1.3-2.3,0.9c-0.9-0.4-1.3-1.4-0.9-2.3
			C229.7,36.6,230.7,36.2,231.6,36.6"/>
		<path class="st0" d="M235.7,29.6c0.8,0.5,1,1.6,0.5,2.4c-0.5,0.8-1.6,1-2.4,0.5c-0.8-0.5-1-1.6-0.5-2.4
			C233.8,29.3,234.9,29.1,235.7,29.6"/>
		<path class="st0" d="M241.7,22.9c0.7,0.7,0.6,1.8-0.1,2.5c-0.7,0.7-1.8,0.6-2.5-0.1c-0.7-0.7-0.6-1.8,0.1-2.5
			C240,22.2,241.1,22.2,241.7,22.9"/>
		<path class="st0" d="M247.6,18.6c0.5,0.8,0.3,1.9-0.5,2.4c-0.8,0.5-1.9,0.3-2.4-0.5c-0.5-0.8-0.3-1.9,0.5-2.4
			C246,17.6,247.1,17.8,247.6,18.6"/>
		<path class="st0" d="M254.7,15.2c0.4,0.9-0.1,1.9-0.9,2.3c-0.9,0.4-1.9-0.1-2.3-0.9c-0.4-0.9,0-1.9,0.9-2.3
			C253.3,13.9,254.3,14.3,254.7,15.2"/>
		<path class="st0" d="M265.4,8.2c0,0.6-0.5,1.1-1.1,1.1c-0.6,0-1.1-0.5-1.1-1.1c0-0.6,0.5-1.1,1.1-1.1
			C264.9,7.1,265.4,7.6,265.4,8.2"/>
		<path class="st0" d="M269.6,3.3c0,0.5-0.4,0.9-0.9,0.9c-0.5,0-0.9-0.4-0.9-0.9c0-0.5,0.4-0.9,0.9-0.9
			C269.2,2.4,269.6,2.8,269.6,3.3"/>
		<path class="st0" d="M281.5,4.9c-0.1,0.5-0.6,0.8-1.1,0.7c-0.5-0.1-0.8-0.6-0.7-1.1c0.1-0.5,0.6-0.8,1.1-0.7
			C281.3,3.9,281.6,4.4,281.5,4.9"/>
		<path class="st0" d="M290.6,8.2c-0.2,0.4-0.7,0.6-1.2,0.4c-0.4-0.2-0.6-0.7-0.4-1.2c0.2-0.4,0.7-0.6,1.2-0.4
			C290.6,7.2,290.8,7.7,290.6,8.2"/>
		<path class="st0" d="M286.5,100.8c-0.2-0.5,0-1,0.5-1.2c0.5-0.2,1,0,1.2,0.5c0.2,0.5,0,1-0.5,1.2
			C287.2,101.5,286.7,101.2,286.5,100.8"/>
		<path class="st0" d="M277.3,103.2c-0.1-0.5,0.2-0.9,0.7-1c0.5-0.1,0.9,0.2,1,0.7c0.1,0.5-0.2,0.9-0.7,1
			C277.9,104,277.4,103.7,277.3,103.2"/>
		<path class="st0" d="M266.8,103.9c0-0.5,0.4-0.9,0.9-0.9c0.5,0,0.9,0.4,0.9,0.9c0,0.5-0.4,0.9-0.9,0.9
			C267.2,104.8,266.8,104.4,266.8,103.9"/>
		<path class="st0" d="M256.3,102.4c0.1-0.5,0.6-0.8,1.1-0.7c0.5,0.1,0.8,0.6,0.7,1.1c-0.1,0.5-0.6,0.8-1.1,0.7
			C256.5,103.3,256.2,102.8,256.3,102.4"/>
		<path class="st0" d="M247,99c0.2-0.4,0.7-0.6,1.2-0.4c0.4,0.2,0.6,0.7,0.4,1.2c-0.2,0.4-0.7,0.6-1.2,0.4
			C247,99.9,246.8,99.4,247,99"/>
		<path class="st0" d="M238,93.4c0.3-0.4,0.9-0.5,1.2-0.2c0.4,0.3,0.5,0.9,0.2,1.2c-0.3,0.4-0.9,0.5-1.2,0.2
			C237.8,94.3,237.7,93.8,238,93.4"/>
		<path class="st0" d="M231.5,87.3c0.4-0.3,0.9-0.3,1.3,0c0.3,0.4,0.3,0.9,0,1.3c-0.4,0.3-0.9,0.3-1.3,0
			C231.1,88.2,231.1,87.7,231.5,87.3"/>
		<path class="st0" d="M226.3,80.4c0.4-0.3,1-0.1,1.2,0.3c0.3,0.4,0.2,1-0.3,1.2c-0.4,0.3-1,0.2-1.2-0.3
			C225.7,81.2,225.8,80.7,226.3,80.4"/>
		<path class="st0" d="M222.6,73.5c0.5-0.2,1,0,1.2,0.4c0.2,0.5,0,1-0.4,1.2c-0.5,0.2-1,0-1.2-0.4C222,74.2,222.2,73.7,222.6,73.5"
			/>
		<path class="st0" d="M219.7,64.5c0.5-0.1,1,0.2,1.1,0.7c0.1,0.5-0.2,1-0.7,1.1c-0.5,0.1-1-0.2-1.1-0.7
			C218.9,65.1,219.2,64.6,219.7,64.5"/>
		<path class="st0" d="M218.5,53.4c0.5,0,0.9,0.4,0.9,0.9c0,0.5-0.4,0.9-0.9,0.9c-0.5,0-0.9-0.4-0.9-0.9
			C217.6,53.8,218,53.4,218.5,53.4"/>
		<path class="st0" d="M219.5,44c0.5,0.1,0.8,0.5,0.7,1c-0.1,0.5-0.5,0.8-1,0.7c-0.5-0.1-0.8-0.5-0.7-1
			C218.5,44.2,219,43.9,219.5,44"/>
		<path class="st0" d="M222.5,33.9c0.5,0.2,0.7,0.7,0.5,1.2c-0.2,0.5-0.7,0.7-1.2,0.5c-0.5-0.2-0.7-0.7-0.5-1.2
			C221.6,34,222.1,33.8,222.5,33.9"/>
		<path class="st0" d="M227.5,24.9c0.4,0.3,0.5,0.8,0.2,1.2c-0.3,0.4-0.8,0.5-1.2,0.2c-0.4-0.3-0.5-0.8-0.2-1.2
			C226.6,24.7,227.1,24.6,227.5,24.9"/>
		<path class="st0" d="M234.3,17c0.3,0.4,0.3,0.9,0,1.3c-0.4,0.3-0.9,0.3-1.3,0c-0.3-0.4-0.3-0.9,0-1.3
			C233.4,16.7,233.9,16.7,234.3,17"/>
		<path class="st0" d="M242,11c0.3,0.4,0.2,1-0.3,1.2c-0.4,0.3-1,0.2-1.2-0.3c-0.3-0.4-0.2-1,0.3-1.2C241.2,10.5,241.8,10.6,242,11"
			/>
		<path class="st0" d="M251.2,6.5c0.2,0.5,0,1-0.5,1.2s-1,0-1.1-0.5c-0.2-0.5,0-1,0.5-1.2C250.5,5.8,251,6,251.2,6.5"/>
		<path class="st0" d="M259.6,4.1c0.1,0.5-0.2,1-0.7,1c-0.5,0.1-1-0.2-1-0.7c-0.1-0.5,0.2-1,0.7-1C259,3.3,259.5,3.6,259.6,4.1"/>
		<path class="st0" d="M275.6,8.5c-0.1,0.6-0.7,1-1.3,0.8c-0.6-0.1-1-0.7-0.8-1.3c0.1-0.6,0.7-1,1.3-0.8
			C275.4,7.4,275.8,7.9,275.6,8.5"/>
		<path class="st0" d="M284.8,10.9c-0.3,0.6-0.9,0.8-1.5,0.5c-0.6-0.3-0.8-0.9-0.5-1.5c0.3-0.6,0.9-0.8,1.5-0.5
			C284.8,9.7,285,10.4,284.8,10.9"/>
		<path class="st0" d="M291.9,14.3c-0.4,0.5-1,0.6-1.5,0.3c-0.5-0.4-0.6-1-0.3-1.5c0.4-0.5,1-0.6,1.5-0.3
			C292.1,13.1,292.3,13.8,291.9,14.3"/>
		<path class="st0" d="M289.4,94.3c-0.2-0.6,0-1.2,0.6-1.4c0.6-0.2,1.2,0,1.4,0.6c0.2,0.6,0,1.2-0.6,1.5
			C290.3,95.1,289.6,94.9,289.4,94.3"/>
		<path class="st0" d="M281.1,97.5c-0.1-0.6,0.3-1.2,0.9-1.3c0.6-0.1,1.2,0.3,1.3,0.9c0.1,0.6-0.3,1.2-0.9,1.3
			C281.8,98.5,281.3,98.1,281.1,97.5"/>
		<path class="st0" d="M271.7,99.1c0-0.6,0.5-1.1,1.1-1.1c0.6,0,1.1,0.5,1.1,1.1c0,0.6-0.5,1.1-1.1,1.1
			C272.2,100.2,271.7,99.7,271.7,99.1"/>
		<path class="st0" d="M261.8,98.6c0.1-0.6,0.7-1,1.3-0.8c0.6,0.1,1,0.7,0.8,1.3c-0.1,0.6-0.7,1-1.3,0.8
			C262,99.8,261.6,99.2,261.8,98.6"/>
		<path class="st0" d="M253.8,96.6c0.2-0.6,0.9-0.8,1.5-0.6c0.6,0.2,0.8,0.9,0.6,1.5c-0.2,0.6-0.9,0.8-1.5,0.6
			C253.8,97.8,253.5,97.1,253.8,96.6"/>
		<path class="st0" d="M244.8,92.3c0.4-0.5,1.1-0.6,1.6-0.2c0.5,0.4,0.6,1.1,0.2,1.6c-0.4,0.5-1.1,0.6-1.5,0.2
			C244.5,93.5,244.4,92.8,244.8,92.3"/>
		<path class="st0" d="M237.9,87c0.5-0.4,1.2-0.4,1.6,0.1c0.4,0.4,0.4,1.2-0.1,1.6c-0.5,0.4-1.2,0.4-1.6-0.1
			C237.4,88.1,237.4,87.4,237.9,87"/>
		<path class="st0" d="M232.6,81.1c0.5-0.3,1.2-0.2,1.5,0.3c0.3,0.5,0.2,1.2-0.3,1.5c-0.5,0.3-1.2,0.2-1.5-0.3
			C231.9,82.1,232.1,81.4,232.6,81.1"/>
		<path class="st0" d="M228.5,74.6c0.6-0.2,1.2,0,1.5,0.6c0.2,0.6,0,1.2-0.6,1.5c-0.6,0.2-1.2,0-1.5-0.6
			C227.6,75.5,227.9,74.8,228.5,74.6"/>
		<path class="st0" d="M225.3,66.9c0.6-0.1,1.2,0.2,1.3,0.8c0.1,0.6-0.2,1.2-0.8,1.3c-0.6,0.1-1.2-0.2-1.3-0.8
			C224.3,67.6,224.7,67,225.3,66.9"/>
		<path class="st0" d="M223.5,57.1c0.6,0,1.1,0.5,1.1,1.1c0,0.6-0.5,1.1-1.1,1.1c-0.6,0-1.1-0.5-1.1-1.1
			C222.4,57.6,222.9,57.1,223.5,57.1"/>
		<path class="st0" d="M223.6,48.5c0.6,0.1,1,0.7,0.9,1.3c-0.1,0.6-0.7,1-1.3,0.9c-0.6-0.1-1-0.7-0.9-1.3
			C222.4,48.8,223,48.4,223.6,48.5"/>
		<path class="st0" d="M225.5,39.6c0.6,0.2,0.8,0.9,0.6,1.5c-0.2,0.6-0.9,0.8-1.5,0.6c-0.6-0.2-0.8-0.9-0.6-1.4
			C224.3,39.6,225,39.3,225.5,39.6"/>
		<path class="st0" d="M229.2,31.3c0.5,0.3,0.6,1,0.3,1.5c-0.3,0.5-1,0.6-1.5,0.3c-0.5-0.3-0.6-1-0.3-1.5
			C228,31.1,228.7,30.9,229.2,31.3"/>
		<path class="st0" d="M234.9,23.3c0.4,0.4,0.4,1.1,0,1.6c-0.4,0.4-1.1,0.4-1.6,0c-0.4-0.4-0.4-1.1,0-1.6
			C233.7,22.9,234.4,22.9,234.9,23.3"/>
		<path class="st0" d="M241.5,17.2c0.3,0.5,0.2,1.2-0.3,1.5c-0.5,0.3-1.2,0.2-1.5-0.3c-0.3-0.5-0.2-1.2,0.3-1.5
			C240.5,16.5,241.2,16.7,241.5,17.2"/>
		<path class="st0" d="M248.7,12.7c0.2,0.6,0,1.2-0.6,1.4c-0.6,0.2-1.2,0-1.4-0.6c-0.2-0.6,0-1.2,0.6-1.4
			C247.9,11.9,248.5,12.2,248.7,12.7"/>
		<path class="st0" d="M257.1,9.6c0.1,0.6-0.3,1.2-0.9,1.3c-0.6,0.1-1.2-0.3-1.3-0.9c-0.1-0.6,0.3-1.2,0.9-1.3
			C256.4,8.6,257,9,257.1,9.6"/>
	</g>
	<g>
		<path class="st1" d="M280.4,59.5c-2.8,3.8-6.4,5.8-11.1,5.8c-5.9,0-11.6-3.8-11.6-12.1c0-7.6,4.9-11.9,11.3-11.9
			c6,0,8.5,3.6,8.9,4.3c1.9,2.6,2.3,6.6,2.3,8.8h-16.8c0.6,3.6,2.9,5.6,6.4,5.6c3.7,0,5.2-2.2,5.9-3.1L280.4,59.5z M274.3,50.4
			c-0.5-3.5-2.7-4.8-5.1-4.8c-2.9,0-4.9,1.7-5.5,4.8H274.3z"/>
		<path class="st1" d="M289.8,42v3.2c0.7-1.2,2.2-3.9,7.2-3.7V47c-1.2,0-3.2,0.1-4.9,1.4c-2.3,1.8-2.4,4.1-2.4,7.8v8.4h-5.3V42
			H289.8z"/>
		<path class="st1" d="M314.3,50c-0.4-1.5-2-3.9-5.1-3.9c-3.1,0-5.6,2.5-5.6,7c0,4.1,2.1,7.1,5.7,7.1c3.4,0,4.8-2.6,5.4-4.4l4.7,2.4
			c-1.8,4.9-6.2,7.1-10.2,7.1c-6.3,0-11.2-4.8-11.2-12c0-6.9,5-12,11.4-12c5.7,0,8.6,3.8,9.8,6.4L314.3,50z"/>
	</g>
	<polyline class="st1" points="197.7,116 197.7,118 201.6,118 201.6,119.3 197.7,119.3 197.7,121.4 202.3,121.4 202.3,122.8 
		196.2,122.8 196.2,114.7 202,114.7 202,116 197.7,116 	"/>
	<path class="st1" d="M208.5,117.1v5.8h-1.4v-0.6c-0.2,0.2-0.8,0.7-1.9,0.7c-0.9,0-1.4-0.4-1.6-0.7c-0.4-0.5-0.4-1-0.4-1.9v-3.3h1.4
		v3.3c0,0.2,0,0.4,0,0.6c0.1,0.5,0.6,0.7,1.1,0.7c0.6,0,0.9-0.3,1.1-0.6c0.2-0.4,0.2-0.7,0.2-1.6v-2.4H208.5"/>
	<path class="st1" d="M211.3,117.1v0.8c0.2-0.3,0.6-1,1.8-0.9v1.4c-0.3,0-0.8,0-1.2,0.3c-0.6,0.4-0.6,1-0.6,2v2.1H210v-5.8H211.3"/>
	<path class="st1" d="M216.5,123c-1.8,0-3-1.3-3-3.1c0-1.8,1.2-3,2.9-3c1.6,0,3,1.1,3,3C219.4,121.7,218.2,123,216.5,123
		 M216.4,118.1c-0.9,0-1.5,0.7-1.5,1.8c0,1.2,0.7,1.8,1.6,1.8c1,0,1.5-0.9,1.5-1.8C217.9,118.9,217.4,118.1,216.4,118.1z"/>
	<path class="st1" d="M220.6,117.1h1.4v0.5c0.2-0.2,0.7-0.7,1.6-0.7c1.7,0,2.6,1.5,2.6,3.1c0,1.7-1.1,3-2.6,3
		c-0.8,0-1.3-0.4-1.6-0.6v2.3h-1.4V117.1 M223.3,121.7c0.7,0,1.4-0.5,1.4-1.8c0-1.4-1-1.7-1.4-1.7c-0.6,0-1.4,0.5-1.4,1.7
		C221.9,121.1,222.6,121.7,223.3,121.7z"/>
	<path class="st1" d="M232.7,121.5c-0.7,1-1.6,1.5-2.8,1.5c-1.5,0-3-1-3-3.1c0-1.9,1.2-3,2.9-3c1.5,0,2.2,0.9,2.3,1.1
		c0.5,0.7,0.6,1.7,0.6,2.2h-4.3c0.2,0.9,0.7,1.4,1.6,1.4c0.9,0,1.3-0.6,1.5-0.8L232.7,121.5 M231.1,119.2c-0.1-0.9-0.7-1.2-1.3-1.2
		c-0.7,0-1.2,0.4-1.4,1.2H231.1z"/>
	<path class="st1" d="M233.6,118.8c0-0.3,0-0.5,0.2-0.9c0.6-1,1.9-1,2.3-1c0.6,0,1.2,0.1,1.7,0.4c0.7,0.4,0.7,1,0.7,1.6v3.1
		c0,0.4,0,0.6,0.3,0.9h-1.6c0-0.1,0-0.4,0-0.4c-0.3,0.3-0.9,0.6-1.7,0.6c-1.3,0-2.1-0.8-2.1-1.8c0-0.3,0.1-0.6,0.2-0.8
		c0.4-0.8,1.3-1,1.9-1.1c1.2-0.2,1.3-0.3,1.8-0.4c0-0.3,0-0.9-1-0.9c-0.6,0-0.9,0.2-1,0.4c-0.1,0.2-0.1,0.3-0.1,0.5L233.6,118.8
		 M237.1,120c-0.3,0.1-0.6,0.2-1.2,0.3c-0.5,0.1-1.2,0.2-1.2,0.8c0,0.4,0.4,0.7,0.9,0.7c0.7,0,1.2-0.3,1.3-0.7
		c0.1-0.2,0.1-0.3,0.1-0.5V120z"/>
	<path class="st1" d="M240,117.1h1.4v0.7c0.1-0.1,0.2-0.3,0.4-0.4c0.3-0.3,0.9-0.4,1.3-0.4c0.7,0,1.2,0.3,1.5,0.7
		c0.4,0.5,0.4,1.1,0.4,1.9v3.4h-1.4v-2.9c0-0.4,0-0.7,0-0.9c-0.1-0.5-0.5-0.8-0.9-0.8c-0.5,0-0.9,0.3-1.1,0.6
		c-0.2,0.4-0.2,1-0.2,1.4v2.5H240V117.1"/>
	<path class="st1" d="M249.8,114.7h2.6c1.1,0,1.8,0,2.5,0.6c0.5,0.4,0.9,1.1,0.9,2c0,1.6-1.1,2.1-1.6,2.2l1.8,3.3h-1.7l-1.6-3h-1.4
		v3h-1.5V114.7 M251.3,116v2.5h0.5c0.5,0,0.7,0,1,0c0.3,0,1.4-0.1,1.4-1.3c0-0.2,0-0.8-0.6-1.1c-0.3-0.2-0.7-0.2-1.6-0.2H251.3z"/>
	<path class="st1" d="M262.5,121.5c-0.7,1-1.6,1.5-2.8,1.5c-1.5,0-3-1-3-3.1c0-1.9,1.2-3,2.9-3c1.5,0,2.2,0.9,2.3,1.1
		c0.5,0.7,0.6,1.7,0.6,2.2h-4.3c0.2,0.9,0.7,1.4,1.6,1.4c0.9,0,1.3-0.6,1.5-0.8L262.5,121.5 M260.9,119.2c-0.1-0.9-0.7-1.2-1.3-1.2
		c-0.7,0-1.2,0.4-1.4,1.2H260.9z"/>
	<path class="st1" d="M264.1,121.1c0.3,0.4,0.9,0.7,1.7,0.7c0.8,0,1.1-0.4,1.1-0.7c0-0.4-0.4-0.5-0.6-0.5c-0.2,0-1.1-0.2-1.3-0.3
		c-1.4-0.3-1.6-1.1-1.6-1.6c0-1,0.9-1.9,2.5-1.9c0.9,0,1.5,0.3,1.9,0.6c0.3,0.2,0.5,0.4,0.6,0.5l-1,0.9c-0.2-0.3-0.6-0.9-1.6-0.9
		c-0.7,0-1,0.3-1,0.6c0,0.4,0.4,0.5,1.2,0.7c1.2,0.2,1.5,0.3,1.9,0.6c0.4,0.3,0.6,0.7,0.6,1.2c0,0.9-0.8,2-2.6,2c-1,0-2-0.3-2.8-1
		L264.1,121.1"/>
	<path class="st1" d="M274.9,121.5c-0.7,1-1.6,1.5-2.8,1.5c-1.5,0-3-1-3-3.1c0-1.9,1.2-3,2.9-3c1.5,0,2.2,0.9,2.3,1.1
		c0.5,0.7,0.6,1.7,0.6,2.2h-4.3c0.2,0.9,0.7,1.4,1.6,1.4c0.9,0,1.3-0.6,1.5-0.8L274.9,121.5 M273.4,119.2c-0.1-0.9-0.7-1.2-1.3-1.2
		c-0.7,0-1.2,0.4-1.4,1.2H273.4z"/>
	<path class="st1" d="M275.8,118.8c0-0.3,0-0.5,0.2-0.9c0.6-1,1.9-1,2.3-1c0.6,0,1.2,0.1,1.7,0.4c0.7,0.4,0.7,1,0.7,1.6v3.1
		c0,0.4,0,0.6,0.3,0.9h-1.6c0-0.1,0-0.4,0-0.4c-0.3,0.3-0.9,0.6-1.7,0.6c-1.3,0-2.1-0.8-2.1-1.8c0-0.3,0.1-0.6,0.2-0.8
		c0.4-0.8,1.3-1,1.9-1.1c1.2-0.2,1.3-0.3,1.8-0.4c0-0.3,0-0.9-1-0.9c-0.6,0-0.9,0.2-1,0.4c-0.2,0.2-0.1,0.3-0.1,0.5L275.8,118.8
		 M279.4,120c-0.3,0.1-0.6,0.2-1.2,0.3c-0.5,0.1-1.2,0.2-1.2,0.8c0,0.4,0.4,0.7,0.9,0.7c0.7,0,1.2-0.3,1.3-0.7
		c0.1-0.2,0.1-0.3,0.1-0.5V120z"/>
	<path class="st1" d="M283.6,117.1v0.8c0.2-0.3,0.6-1,1.8-0.9v1.4c-0.3,0-0.8,0-1.2,0.3c-0.6,0.4-0.6,1-0.6,2v2.1h-1.3v-5.8H283.6"
		/>
	<path class="st1" d="M289.8,119.1c-0.1-0.4-0.5-1-1.3-1c-0.8,0-1.4,0.6-1.4,1.8c0,1,0.5,1.8,1.5,1.8c0.9,0,1.2-0.7,1.4-1.1l1.2,0.6
		c-0.4,1.2-1.6,1.8-2.6,1.8c-1.6,0-2.9-1.2-2.9-3.1c0-1.8,1.3-3.1,2.9-3.1c1.5,0,2.2,1,2.5,1.6L289.8,119.1"/>
	<path class="st1" d="M293,114.7v3c0.4-0.4,1-0.8,1.8-0.8c0.7,0,1.3,0.3,1.6,0.6c0.5,0.5,0.5,1.1,0.5,1.8v3.6h-1.4v-3.2
		c0-0.5,0-0.6-0.1-0.8c0-0.1-0.2-0.6-1-0.6c-0.9,0-1.3,0.7-1.4,1c0,0.2,0,0.3,0,0.9v2.6h-1.4v-8.1H293"/>
	<path class="st1" d="M308.5,120.5c-0.1,0.3-0.3,0.7-0.7,1.2c-0.6,0.7-1.5,1.3-2.8,1.3c-2.2,0-3.8-1.6-3.8-4.3
		c0-2.8,1.8-4.3,3.9-4.3c2.5,0,3.1,1.9,3.3,2.5l-1.5,0.4c0-0.2-0.1-0.5-0.3-0.8c-0.2-0.3-0.6-0.7-1.5-0.7c-1.3,0-2.2,1.1-2.2,2.8
		c0,1.9,1,2.9,2.3,2.9c0.8,0,1.2-0.4,1.6-0.8c0.3-0.4,0.4-0.7,0.4-0.8L308.5,120.5"/>
	<path class="st1" d="M312.1,123c-1.8,0-3-1.3-3-3.1c0-1.8,1.2-3,2.9-3c1.6,0,3,1.1,3,3C315,121.7,313.8,123,312.1,123 M312,118.1
		c-0.9,0-1.5,0.7-1.5,1.8c0,1.2,0.7,1.8,1.6,1.8c1,0,1.5-0.9,1.5-1.8C313.5,118.9,313,118.1,312,118.1z"/>
	<path class="st1" d="M321.3,117.1v5.8H320v-0.6c-0.2,0.2-0.8,0.7-1.9,0.7c-0.9,0-1.4-0.4-1.6-0.7c-0.4-0.5-0.4-1-0.4-1.9v-3.3h1.4
		v3.3c0,0.2,0,0.4,0,0.6c0.2,0.5,0.6,0.7,1.1,0.7c0.6,0,0.9-0.3,1.1-0.6c0.2-0.4,0.2-0.7,0.2-1.6v-2.4H321.3"/>
	<path class="st1" d="M322.8,117.1h1.4v0.7c0.1-0.1,0.2-0.3,0.4-0.4c0.3-0.3,0.9-0.4,1.3-0.4c0.7,0,1.2,0.3,1.5,0.7
		c0.4,0.5,0.4,1.1,0.4,1.9v3.4h-1.4v-2.9c0-0.4,0-0.7,0-0.9c-0.1-0.5-0.5-0.8-0.9-0.8c-0.4,0-0.9,0.3-1.1,0.6
		c-0.2,0.4-0.2,1-0.2,1.4v2.5h-1.4V117.1"/>
	<path class="st1" d="M333,119.1c-0.1-0.4-0.5-1-1.3-1c-0.8,0-1.4,0.6-1.4,1.8c0,1,0.5,1.8,1.5,1.8c0.9,0,1.2-0.7,1.4-1.1l1.2,0.6
		c-0.4,1.2-1.6,1.8-2.6,1.8c-1.6,0-2.9-1.2-2.9-3.1c0-1.8,1.3-3.1,2.9-3.1c1.5,0,2.2,1,2.5,1.6L333,119.1"/>
	<path class="st1" d="M336.5,114.8v1.4h-1.4v-1.4H336.5 M335.1,117.1h1.4v5.8h-1.4V117.1z"/>
	<g>
		<rect x="338" y="114.7" class="st1" width="1.4" height="8.1"/>
	</g>
	<g>
		<path class="st1" d="M196.3,139v-5.6h3.5v0.5h-2.9v2h2.5v0.5h-2.5v2h2.9v0.5H196.3z"/>
		<path class="st1" d="M202.1,139c-0.7,0-1.2-0.2-1.6-0.6l0.4-0.4c0.3,0.3,0.7,0.5,1.2,0.5c0.6,0,1-0.2,1-0.7c0-0.3-0.2-0.5-0.6-0.6
			l-0.6-0.1c-0.8-0.1-1.2-0.4-1.2-1c0-0.7,0.6-1.1,1.4-1.1c0.6,0,1.1,0.1,1.4,0.4l-0.4,0.4c-0.3-0.2-0.6-0.3-1-0.3
			c-0.6,0-0.9,0.2-0.9,0.6c0,0.3,0.2,0.5,0.7,0.6l0.6,0.1c0.7,0.1,1.1,0.3,1.1,1.1C203.7,138.6,203.1,139,202.1,139z"/>
		<path class="st1" d="M205.8,139c-0.7,0-1-0.5-1-1v-2.4h-0.5v-0.4h0.5v-1.2h0.6v1.2h0.8v0.4h-0.8v2.4c0,0.4,0.2,0.6,0.5,0.6h0.3
			v0.5H205.8z"/>
		<path class="st1" d="M209.5,139v-0.4c-0.3,0.3-0.6,0.4-1.1,0.4c-0.5,0-0.9-0.1-1.1-0.4c-0.2-0.2-0.3-0.5-0.3-0.8
			c0-0.7,0.5-1.1,1.3-1.1h1.2v-0.4c0-0.6-0.3-0.9-1-0.9c-0.5,0-0.8,0.1-1,0.4l-0.4-0.4c0.3-0.5,0.7-0.6,1.4-0.6c1,0,1.6,0.5,1.6,1.3
			v2.6H209.5z M209.5,137.2h-1.1c-0.6,0-0.9,0.2-0.9,0.7c0,0.5,0.3,0.7,0.9,0.7c0.3,0,0.6,0,0.9-0.3c0.1-0.1,0.2-0.3,0.2-0.7V137.2z
			"/>
		<path class="st1" d="M214.1,138.7c-0.2,0.2-0.6,0.3-0.9,0.3c-0.4,0-0.8-0.1-1.1-0.5v0.5h-0.6v-5.6h0.6v2.2
			c0.3-0.4,0.7-0.5,1.1-0.5c0.4,0,0.7,0.1,0.9,0.3c0.4,0.4,0.5,1,0.5,1.7S214.5,138.3,214.1,138.7z M213,135.5c-0.8,0-1,0.7-1,1.5
			c0,0.8,0.1,1.5,1,1.5s1-0.7,1-1.5C214,136.3,213.9,135.5,213,135.5z"/>
		<path class="st1" d="M216.8,139c-0.7,0-1-0.4-1-1v-4.6h0.6v4.6c0,0.4,0.1,0.6,0.5,0.6h0.3v0.5H216.8z"/>
		<path class="st1" d="M218.1,134v-0.6h0.6v0.6H218.1z M218.1,139v-3.9h0.6v3.9H218.1z"/>
		<path class="st1" d="M221.3,139c-0.7,0-1.2-0.2-1.6-0.6l0.4-0.4c0.3,0.3,0.7,0.5,1.2,0.5c0.6,0,1-0.2,1-0.7c0-0.3-0.2-0.5-0.6-0.6
			l-0.6-0.1c-0.8-0.1-1.2-0.4-1.2-1c0-0.7,0.6-1.1,1.4-1.1c0.6,0,1.1,0.1,1.4,0.4l-0.4,0.4c-0.3-0.2-0.6-0.3-1-0.3
			c-0.6,0-0.9,0.2-0.9,0.6c0,0.3,0.2,0.5,0.7,0.6l0.6,0.1c0.7,0.1,1.1,0.3,1.1,1.1C222.9,138.6,222.3,139,221.3,139z"/>
		<path class="st1" d="M226.5,139v-2.4c0-0.7-0.4-1-0.9-1c-0.6,0-1,0.4-1,1v2.4H224v-5.6h0.6v2.2c0.3-0.3,0.7-0.5,1.1-0.5
			c0.9,0,1.4,0.6,1.4,1.4v2.5H226.5z"/>
		<path class="st1" d="M228.8,137.2c0,0.9,0.4,1.3,1.1,1.3c0.5,0,0.7-0.1,1-0.4l0.4,0.3c-0.4,0.4-0.8,0.6-1.4,0.6
			c-1,0-1.7-0.6-1.7-2c0-1.3,0.6-2,1.6-2c1,0,1.6,0.7,1.6,1.9v0.3H228.8z M230.8,136.1c-0.1-0.4-0.5-0.6-0.9-0.6
			c-0.4,0-0.8,0.2-0.9,0.6c-0.1,0.2-0.1,0.3-0.1,0.6h2.1C230.9,136.4,230.9,136.3,230.8,136.1z"/>
		<path class="st1" d="M235,139v-0.5c-0.3,0.4-0.7,0.5-1.1,0.5c-0.4,0-0.7-0.1-0.9-0.3c-0.4-0.4-0.5-1-0.5-1.7s0.1-1.3,0.5-1.7
			c0.2-0.2,0.6-0.3,0.9-0.3c0.4,0,0.8,0.1,1.1,0.5v-2.2h0.6v5.6H235z M234,135.5c-0.8,0-1,0.7-1,1.5c0,0.8,0.1,1.5,1,1.5
			s1-0.7,1-1.5C235,136.3,234.9,135.5,234,135.5z"/>
		<path class="st1" d="M241.6,138.7c-0.2,0.2-0.6,0.3-0.9,0.3c-0.4,0-0.8-0.1-1.1-0.5v0.5h-0.6v-5.6h0.6v2.2
			c0.3-0.4,0.7-0.5,1.1-0.5c0.4,0,0.7,0.1,0.9,0.3c0.4,0.4,0.5,1,0.5,1.7S242,138.3,241.6,138.7z M240.5,135.5c-0.8,0-1,0.7-1,1.5
			c0,0.8,0.1,1.5,1,1.5s1-0.7,1-1.5C241.5,136.3,241.3,135.5,240.5,135.5z"/>
		<path class="st1" d="M244.2,139.9c-0.1,0.2-0.2,0.4-0.3,0.5c-0.2,0.2-0.5,0.3-0.8,0.3h-0.2v-0.5h0.2c0.4,0,0.5-0.1,0.6-0.5
			l0.3-0.8l-1.4-3.8h0.6l1.1,3.1l1.1-3.1h0.6L244.2,139.9z"/>
		<path class="st1" d="M249.8,139c-0.7,0-1-0.5-1-1v-2.4h-0.5v-0.4h0.5v-1.2h0.6v1.2h0.8v0.4h-0.8v2.4c0,0.4,0.2,0.6,0.5,0.6h0.3
			v0.5H249.8z"/>
		<path class="st1" d="M253.9,139v-2.4c0-0.7-0.4-1-0.9-1c-0.6,0-1,0.4-1,1v2.4h-0.6v-5.6h0.6v2.2c0.3-0.3,0.7-0.5,1.1-0.5
			c0.9,0,1.4,0.6,1.4,1.4v2.5H253.9z"/>
		<path class="st1" d="M256.2,137.2c0,0.9,0.4,1.3,1.1,1.3c0.5,0,0.7-0.1,1-0.4l0.4,0.3c-0.4,0.4-0.8,0.6-1.4,0.6
			c-1,0-1.7-0.6-1.7-2c0-1.3,0.6-2,1.6-2c1,0,1.6,0.7,1.6,1.9v0.3H256.2z M258.1,136.1c-0.1-0.4-0.5-0.6-0.9-0.6
			c-0.4,0-0.8,0.2-0.9,0.6c-0.1,0.2-0.1,0.3-0.1,0.6h2.1C258.2,136.4,258.2,136.3,258.1,136.1z"/>
		<path class="st1" d="M262.1,139v-5.6h3.5v0.5h-2.9v2h2.5v0.5h-2.5v2h2.9v0.5H262.1z"/>
		<path class="st1" d="M269.2,139v-0.4c-0.3,0.3-0.7,0.5-1.1,0.5c-0.4,0-0.8-0.1-1-0.4c-0.3-0.3-0.4-0.6-0.4-1.1v-2.5h0.6v2.4
			c0,0.7,0.4,1,0.9,1c0.6,0,1-0.4,1-1v-2.4h0.6v3.9H269.2z"/>
		<path class="st1" d="M273.3,135.8c-0.2-0.2-0.4-0.3-0.7-0.3c-0.6,0-0.9,0.5-0.9,1v2.4h-0.6v-3.9h0.6v0.5c0.2-0.3,0.6-0.5,1.1-0.5
			c0.4,0,0.7,0.1,0.9,0.4L273.3,135.8z"/>
		<path class="st1" d="M276.7,138.6c-0.3,0.3-0.6,0.4-1.1,0.4c-0.5,0-0.8-0.2-1.1-0.4c-0.4-0.4-0.5-0.9-0.5-1.5s0.1-1.1,0.5-1.5
			c0.3-0.3,0.6-0.4,1.1-0.4c0.5,0,0.8,0.2,1.1,0.4c0.4,0.4,0.5,0.9,0.5,1.5S277.1,138.2,276.7,138.6z M276.3,135.8
			c-0.2-0.2-0.4-0.3-0.7-0.3c-0.3,0-0.5,0.1-0.7,0.3c-0.3,0.3-0.3,0.8-0.3,1.2c0,0.4,0,0.9,0.3,1.2c0.2,0.2,0.4,0.3,0.7,0.3
			c0.3,0,0.5-0.1,0.7-0.3c0.3-0.3,0.3-0.8,0.3-1.2C276.6,136.6,276.6,136.1,276.3,135.8z"/>
		<path class="st1" d="M281,138.7c-0.2,0.2-0.6,0.3-0.9,0.3c-0.4,0-0.8-0.1-1.1-0.5v2.2h-0.6v-5.6h0.6v0.5c0.3-0.4,0.7-0.5,1.1-0.5
			c0.4,0,0.7,0.1,0.9,0.3c0.4,0.4,0.5,1,0.5,1.7S281.4,138.3,281,138.7z M279.9,135.5c-0.8,0-1,0.7-1,1.5c0,0.8,0.1,1.5,1,1.5
			s1-0.7,1-1.5C280.9,136.3,280.8,135.5,279.9,135.5z"/>
		<path class="st1" d="M283,137.2c0,0.9,0.4,1.3,1.1,1.3c0.5,0,0.7-0.1,1-0.4l0.4,0.3c-0.4,0.4-0.8,0.6-1.4,0.6c-1,0-1.7-0.6-1.7-2
			c0-1.3,0.6-2,1.6-2c1,0,1.6,0.7,1.6,1.9v0.3H283z M285,136.1c-0.2-0.4-0.5-0.6-0.9-0.6c-0.4,0-0.8,0.2-0.9,0.6
			c-0.1,0.2-0.1,0.3-0.1,0.6h2.1C285.1,136.4,285.1,136.3,285,136.1z"/>
		<path class="st1" d="M289.1,139v-0.4c-0.3,0.3-0.6,0.4-1.1,0.4c-0.5,0-0.9-0.1-1.1-0.4c-0.2-0.2-0.3-0.5-0.3-0.8
			c0-0.7,0.5-1.1,1.3-1.1h1.2v-0.4c0-0.6-0.3-0.9-1-0.9c-0.5,0-0.8,0.1-1,0.4l-0.4-0.4c0.3-0.5,0.7-0.6,1.4-0.6c1,0,1.6,0.5,1.6,1.3
			v2.6H289.1z M289.1,137.2H288c-0.6,0-0.9,0.2-0.9,0.7c0,0.5,0.3,0.7,0.9,0.7c0.3,0,0.6,0,0.9-0.3c0.1-0.1,0.2-0.3,0.2-0.7V137.2z"
			/>
		<path class="st1" d="M293.5,139v-2.4c0-0.7-0.4-1-1-1c-0.6,0-1,0.4-1,1v2.4H291v-3.9h0.6v0.4c0.3-0.3,0.7-0.5,1.1-0.5
			c0.4,0,0.8,0.1,1,0.4c0.3,0.3,0.4,0.6,0.4,1.1v2.5H293.5z"/>
		<path class="st1" d="M299.3,139c-0.6,0-1.1-0.2-1.4-0.6c-0.5-0.5-0.5-1.1-0.5-2.3c0-1.2,0-1.7,0.5-2.3c0.4-0.4,0.9-0.6,1.4-0.6
			c1,0,1.8,0.6,2,1.7h-0.6c-0.2-0.7-0.6-1.1-1.3-1.1c-0.4,0-0.7,0.1-1,0.4c-0.4,0.4-0.4,0.8-0.4,1.9c0,1.2,0,1.6,0.4,1.9
			c0.2,0.3,0.6,0.4,1,0.4c0.7,0,1.2-0.5,1.4-1.1h0.6C301.1,138.4,300.3,139,299.3,139z"/>
		<path class="st1" d="M305,138.6c-0.3,0.3-0.6,0.4-1.1,0.4c-0.5,0-0.8-0.2-1.1-0.4c-0.4-0.4-0.5-0.9-0.5-1.5s0.1-1.1,0.5-1.5
			c0.3-0.3,0.6-0.4,1.1-0.4c0.5,0,0.8,0.2,1.1,0.4c0.4,0.4,0.5,0.9,0.5,1.5S305.4,138.2,305,138.6z M304.6,135.8
			c-0.2-0.2-0.4-0.3-0.7-0.3c-0.3,0-0.5,0.1-0.7,0.3c-0.3,0.3-0.3,0.8-0.3,1.2c0,0.4,0,0.9,0.3,1.2c0.2,0.2,0.4,0.3,0.7,0.3
			c0.3,0,0.5-0.1,0.7-0.3c0.3-0.3,0.3-0.8,0.3-1.2C304.9,136.6,304.8,136.1,304.6,135.8z"/>
		<path class="st1" d="M311.7,139v-2.4c0-0.7-0.4-1-1-1c-0.6,0-1,0.4-1,1v2.5h-0.6v-2.4c0-0.7-0.4-1-1-1c-0.6,0-1,0.4-1,1v2.4h-0.6
			v-3.9h0.6v0.4c0.3-0.3,0.7-0.5,1.1-0.5c0.5,0,1,0.2,1.2,0.6c0.3-0.4,0.7-0.6,1.3-0.6c0.4,0,0.8,0.1,1,0.4c0.3,0.3,0.4,0.6,0.4,1.1
			v2.5H311.7z"/>
		<path class="st1" d="M318.6,139v-2.4c0-0.7-0.4-1-1-1c-0.6,0-1,0.4-1,1v2.5h-0.6v-2.4c0-0.7-0.4-1-1-1c-0.6,0-1,0.4-1,1v2.4h-0.6
			v-3.9h0.6v0.4c0.3-0.3,0.7-0.5,1.1-0.5c0.5,0,1,0.2,1.2,0.6c0.3-0.4,0.7-0.6,1.3-0.6c0.4,0,0.8,0.1,1,0.4c0.3,0.3,0.4,0.6,0.4,1.1
			v2.5H318.6z"/>
		<path class="st1" d="M320.5,134v-0.6h0.6v0.6H320.5z M320.5,139v-3.9h0.6v3.9H320.5z"/>
		<path class="st1" d="M323.8,139c-0.7,0-1.2-0.2-1.6-0.6l0.4-0.4c0.3,0.3,0.7,0.5,1.2,0.5c0.6,0,1-0.2,1-0.7c0-0.3-0.2-0.5-0.6-0.6
			l-0.6-0.1c-0.8-0.1-1.2-0.4-1.2-1c0-0.7,0.6-1.1,1.4-1.1c0.6,0,1.1,0.1,1.4,0.4l-0.4,0.4c-0.3-0.2-0.6-0.3-1-0.3
			c-0.6,0-0.9,0.2-0.9,0.6c0,0.3,0.2,0.5,0.7,0.6l0.6,0.1c0.7,0.1,1.1,0.3,1.1,1.1C325.3,138.6,324.7,139,323.8,139z"/>
		<path class="st1" d="M327.6,139c-0.7,0-1.2-0.2-1.6-0.6l0.4-0.4c0.3,0.3,0.7,0.5,1.2,0.5c0.6,0,1-0.2,1-0.7c0-0.3-0.2-0.5-0.6-0.6
			l-0.6-0.1c-0.8-0.1-1.2-0.4-1.2-1c0-0.7,0.6-1.1,1.4-1.1c0.6,0,1.1,0.1,1.4,0.4l-0.4,0.4c-0.3-0.2-0.6-0.3-1-0.3
			c-0.6,0-0.9,0.2-0.9,0.6c0,0.3,0.2,0.5,0.7,0.6l0.6,0.1c0.7,0.1,1.1,0.3,1.1,1.1C329.1,138.6,328.5,139,327.6,139z"/>
		<path class="st1" d="M330.2,134v-0.6h0.6v0.6H330.2z M330.3,139v-3.9h0.6v3.9H330.3z"/>
		<path class="st1" d="M334.7,138.6c-0.3,0.3-0.6,0.4-1.1,0.4c-0.5,0-0.8-0.2-1.1-0.4c-0.4-0.4-0.5-0.9-0.5-1.5s0.1-1.1,0.5-1.5
			c0.3-0.3,0.6-0.4,1.1-0.4c0.5,0,0.8,0.2,1.1,0.4c0.4,0.4,0.5,0.9,0.5,1.5S335.1,138.2,334.7,138.6z M334.3,135.8
			c-0.2-0.2-0.4-0.3-0.7-0.3c-0.3,0-0.5,0.1-0.7,0.3c-0.3,0.3-0.3,0.8-0.3,1.2c0,0.4,0,0.9,0.3,1.2c0.2,0.2,0.4,0.3,0.7,0.3
			c0.3,0,0.5-0.1,0.7-0.3c0.3-0.3,0.3-0.8,0.3-1.2C334.7,136.6,334.6,136.1,334.3,135.8z"/>
		<path class="st1" d="M338.9,139v-2.4c0-0.7-0.4-1-1-1c-0.6,0-1,0.4-1,1v2.4h-0.6v-3.9h0.6v0.4c0.3-0.3,0.7-0.5,1.1-0.5
			c0.4,0,0.8,0.1,1,0.4c0.3,0.3,0.4,0.6,0.4,1.1v2.5H338.9z"/>
	</g>
</g>
<g>
	<path class="st1" d="M23.9,24.9v88.8h133.5V24.9H23.9z M154.8,111.1H26.5V27.3h128.3V111.1z"/>
	<g>
		<polygon class="st1" points="87.9,45.6 90.6,43.6 93.3,45.6 92.3,42.4 95,40.5 91.7,40.5 90.6,37.3 89.6,40.5 86.2,40.5 
			88.9,42.4 		"/>
		<polygon class="st1" points="73.9,49.2 76.6,47.3 79.3,49.2 78.3,46.1 81,44.2 77.6,44.2 76.6,41 75.6,44.2 72.2,44.2 74.9,46.1 
					"/>
		<polygon class="st1" points="66.3,51.1 65.3,54.3 61.9,54.2 64.7,56.2 63.6,59.3 66.3,57.4 69.1,59.3 68,56.2 70.8,54.2 
			67.4,54.2 		"/>
		<polygon class="st1" points="62.6,71.1 65.3,73 64.3,69.9 67,68 63.6,68 62.6,64.8 61.5,68 58.2,68 60.9,69.9 59.9,73 		"/>
		<polygon class="st1" points="67.4,81.7 66.3,78.6 65.3,81.7 61.9,81.7 64.7,83.7 63.6,86.8 66.3,84.9 69.1,86.8 68,83.7 
			70.8,81.7 		"/>
		<polygon class="st1" points="77.7,91.8 76.6,88.6 75.6,91.8 72.2,91.8 74.9,93.7 73.9,96.9 76.6,94.9 79.3,96.9 78.3,93.7 
			81,91.8 		"/>
		<polygon class="st1" points="91.7,95.4 90.6,92.3 89.6,95.4 86.2,95.4 88.9,97.4 87.9,100.5 90.6,98.6 93.3,100.5 92.3,97.4 
			95,95.4 		"/>
		<polygon class="st1" points="105.7,91.8 104.6,88.6 103.6,91.8 100.2,91.8 102.9,93.7 101.9,96.9 104.6,94.9 107.3,96.9 
			106.3,93.7 109,91.8 		"/>
		<polygon class="st1" points="115.9,81.7 114.9,78.6 113.8,81.7 110.5,81.7 113.2,83.7 112.2,86.8 114.9,84.9 117.6,86.8 
			116.6,83.7 119.3,81.7 		"/>
		<polygon class="st1" points="123,67.9 119.6,67.9 118.6,64.8 117.6,67.9 114.2,67.9 116.9,69.9 115.9,73 118.6,71.1 121.3,73 
			120.3,69.9 		"/>
		<polygon class="st1" points="112.2,59.3 114.9,57.3 117.6,59.3 116.6,56.1 119.3,54.2 115.9,54.2 114.9,51 113.8,54.2 110.5,54.2 
			113.2,56.1 		"/>
		<polygon class="st1" points="104.7,41 103.6,44.2 100.2,44.2 103,46.1 101.9,49.2 104.7,47.3 107.4,49.2 106.3,46.1 109.1,44.2 
			105.7,44.2 		"/>
	</g>
</g>
<line class="st2" x1="178.3" y1="140.4" x2="178.3" y2="5.4"/>
</svg>
