<?xml version="1.0" encoding="utf-8"?>
<!-- Generator: Adobe Illustrator 21.1.0, SVG Export Plug-In . SVG Version: 6.00 Build 0)  -->
<svg version="1.1" id="Layer_1" xmlns="http://www.w3.org/2000/svg" xmlns:xlink="http://www.w3.org/1999/xlink" x="0px" y="0px"
	 viewBox="0 0 1200 467.7" style="enable-background:new 0 0 1200 467.7;" xml:space="preserve">
<style type="text/css">
	.st0{fill:#FFFFFF;}
</style>
<g id="Layer_2">
</g>
<g>
	<path class="st0" d="M173.4,285.8c0,14.6,7,24.9,17.8,24.9c11.1,0,18.1-7.6,18.1-24.9c0-14.1-7.8-24-18.1-24
		C179.7,261.8,173.4,272.3,173.4,285.8z"/>
	<path class="st0" d="M303.9,310.2h2.7c12.6,0,22.1-7.4,22.1-24.8c0-17.9-11.3-23.5-22.6-23.5c-6.5,0-9.3,0.2-9.3,5v36
		C296.8,309.5,300.6,310.2,303.9,310.2z"/>
	<path class="st0" d="M56.7,56.7V411h453.5V56.7H56.7z M414.5,160.3c0-1,0.5-1.4,1.1-1.4c0.6,0,0.9,0.3,1.2,1.2
		c2.9,11.2,11.2,14.5,18.2,14.5c6.3,0,13-3.1,13-12.6c0-8.5-6.5-10.8-14.7-13.8c-7.8-2.8-16.8-6.5-16.8-17.8
		c0-11.3,10.3-14.6,18.1-14.6c5.9,0,8.3,1.8,10.8,1.8c1.4,0,2.2-0.8,2.7-1.8c0.2-0.5,0.5-0.7,0.8-0.7c0.4,0,0.7,0.2,0.9,1l1.6,11.2
		c0.1,0.5-0.4,0.8-0.8,0.8c-0.3,0-0.6-0.1-0.8-0.7c-4.2-8.2-10.5-9.3-14.3-9.3c-7.8,0-10.6,4.6-10.6,9.4c0,5.5,3.4,10,14.2,13
		c15.2,4.3,17.8,12.3,17.8,18.6c0,15.8-13.6,18.3-21.6,18.3c-9.1,0-12.8-3.8-16-3.8c-1.5,0-2.2,0.8-2.8,1.6c-0.2,0.5-0.7,0.7-1,0.7
		c-0.5,0-1-0.5-1-1.3V160.3z M433.8,236c4.5,0,8.8-3.5,11.2-6.3c0.8-0.8,1.9,0.2,1.3,1c-3.5,4.6-9,8.9-16,8.9
		c-5.3,0-8.4-3.8-8.4-8.6c0-15,16.5-30.8,27.6-30.8c3.8,0,6.5,1.4,6.5,5.4c0,5.9-5.2,9-14.3,11.8c-2.7,0.8-8.3,2-11,2.6
		c-1.2,2-2.9,6-2.9,9.2C427.8,233.5,430,236,433.8,236z M418.6,208.4c0,1.9-0.4,4.1-1.4,6.4c-3.8,8-9.9,9.5-14.4,9.5
		c-1.4,0-3.4-0.5-5-0.5c-1.1,0-2.2,0.3-2.9,0.8c-1.1,0.6-1.3,1.6-1.3,2.5c0,3.6,5.2,6,8.7,8c5.5,3,10.5,7.3,10.5,11.8
		c0,1.2-0.3,3.2-1.8,5c-2,2.3-7.2,5.3-15.5,5.3c-14.2,0-17.6-6.5-17.6-10.5c0-3.5,3.2-5.9,6-7.5c3.7-2,8.3-3.3,8.3-3.3
		c-2.3-1.5-4.3-3.9-4.3-6.4c0-3.9,3.7-6,6-6.8c1.3-0.3,2-0.7,2-1.3c0-0.3,0-0.4-0.2-0.7c-0.8-1-1.8-2.8-1.8-5.3s0.5-5,3-8.5
		c3.5-4.7,9-7,12.8-7s5.2,0.7,6.8,1.8c0.7,0.5,2-0.1,2.5-0.5c2-1.4,3.9-1.8,5.4-1.8c1.4,0,2.8,0.5,2.8,2c0,1.8-0.9,2.3-1.9,2.3
		c-1.6,0-1.6-1.1-4.2-1.2c-1.9,0-2.9,0.6-2.9,1.6C418.2,205.3,418.6,205.9,418.6,208.4z M229.5,303.7c0.1,6.4,4,7.4,6.3,7.4
		c1.2,0,1.2,1.7,0.2,1.7h-15.5c-1,0-1-1.7,0.3-1.7c3.8,0,5.2-3.4,5.2-7.4l0.3-37.1c0-4.6-3.2-5-4.7-5c-1.4,0-1.1-1.8-0.1-1.8H235
		l34,40.1l-0.4-32.5c-0.1-5.8-5.4-6.1-7.2-6.1c-1,0-1-1.5,0-1.5h17.3c1,0,1,1.5,0,1.5c-4.8,0-6.7,2.4-6.7,6.8l-0.2,44.6h-2.7
		c-0.3-0.2-39.9-46.8-39.9-46.8L229.5,303.7z M279,202.7c0.8-9.7-4.5-15-11.6-15c-7.5,0-13.8,5.8-18,11
		c-6.5,7.8-10.8,17.3-10.8,26.3c0,6.9,2.8,12.3,9.9,12.3c3.3,0,7.4-1,10.9-2.7c8.4-4.1,10.1-6.5,12.5-10.3c0.6-1,1-1.3,1.8-1.3
		c0.5,0,1,0.5,0.6,1.8l-5.4,15.3c-0.2,0.5-0.7,0.7-1,0.7c-0.5,0-1-0.2-1-1c-0.2-1.9-0.3-4-1.7-4c-0.8,0-2.2,0.6-3.5,1.1
		c-5.8,2.4-9,2.9-13.3,2.9c-9.5,0-16.8-6-16.8-16.5c0-6.6,2-13.3,5.9-19.4c6.5-10.2,17.5-18.6,30.3-18.6c2.7,0,8.5,0.7,12.1,5.1
		c0.4,0.3,0.8,0.6,1.2,0.6c0.7,0,1.6-0.7,2.4-1.5c0.2-0.2,0.5-0.3,0.8-0.3c0.7,0,1,0.5,0.8,1.3l-4,12.8c-0.2,0.5-0.5,0.8-1,0.8
		C279.5,204.1,278.9,203.7,279,202.7z M304.2,199.1c8,0,9.5,7,9.5,13.5c0,10.4-9.5,26.9-21,26.9c-7.3,0-10-5.9-10-11.9
		C282.6,213.2,292.9,199.1,304.2,199.1z M283,310.7c4.8,0,5.7-2.5,5.7-6.5v-37.7c0-4-3.3-5-5.3-5c-1,0-1.4-2,0.4-2l23.9-0.1
		c14.6,0,29.6,4,29.6,26.1c0,21.8-18.3,27.1-29.3,27.1h-25.1C281.8,312.6,281.8,310.7,283,310.7z M335.3,239.8c-1.4,0-2.3-1-2.3-2.3
		c0-1,0.7-2.5,1-3.3c6.5-14.7,13.2-29.3,20-44c0.2-0.5,0.3-1.1,0.3-1.3c0-0.3-0.1-0.6-0.5-0.7c-1.1-0.3-2.1-0.3-3.1-0.3
		c-0.5,0-0.9-0.2-0.9-0.7c0-0.3,0.3-0.8,0.8-0.8c1.9-0.1,4.1-0.3,5.3-0.4c1.5-0.1,2.7-0.4,3.7-0.4c0.6,0,1,0.2,1,0.8
		c0,0.5-0.2,1-0.5,1.8l-20.9,46.4c-0.3,1,0.2,1,0.7,0.8c2.8-1.6,5.4-5.1,6.3-5.9c0.6-0.5,1.5,0.1,1,0.9c-2.3,3.4-6.1,7.4-9.8,8.9
		C336.9,239.6,336,239.8,335.3,239.8z M366.4,236c4.5,0,8.8-3.5,11.1-6.3c0.7-0.8,1.8,0.2,1.2,1c-3.5,4.6-9,8.9-15.9,8.9
		c-5.3,0-8.4-3.8-8.4-8.6c0-15,16.5-30.8,27.6-30.8c3.8,0,6.5,1.4,6.5,5.4c0,5.9-5.1,9-14.3,11.8c-2.6,0.8-8.3,2-11,2.6
		c-1.2,2-2.8,6-2.8,9.2C360.4,233.5,362.5,236,366.4,236z M371,259.6c15.8,0,26.6,11.8,26.6,26.3c0,16.5-11.1,27.3-26.6,27.3
		c-16,0-26.4-11.8-26.4-27.3C344.6,271.6,355.6,259.6,371,259.6z M405,115.5c3.2,0,5.8,2.3,5.8,6.2c0,4.3-3.3,9.5-9,9.5
		c-0.6,0-0.8-0.4-0.8-0.8c0-0.4,0.3-0.7,0.6-0.8c3.9-0.8,5.4-3.3,5.5-4.9c-0.4,0.3-1.6,0.6-2.7,0.6c-2.2,0-4.7-1.3-4.7-4.9
		C399.7,116.6,402.7,115.5,405,115.5z M367,115.4c9.5,0,14.3,2.5,19.3,5.7c0.5,0.3,1.7,1.1,2.7,1.1c1.3,0,2.3-1,2.6-2.5
		c0.5-1.5,2.3-1.3,2.3,0V133c0,1-1.6,1.3-2.3,0c-2.1-4.1-8.1-14.9-24.7-14.9c-18.5,0-24.2,17.6-24.2,28.8c0,13.8,7.2,27.7,23.2,27.7
		c3.3,0,8.9-0.2,13.3-3.9c1.1-0.9,2.1-2.3,2.1-4.3v-9.1c0-4.8-4-5.8-9-6.1c-1.8-0.1-1.8-2.4,0-2.4h25.3c1.8,0,1.6,2,0.3,2.2
		c-3.2,0.3-7,0.8-7,5.9l-0.1,11.6c-1.5,1-9.5,8.8-24.8,8.8c-15.6,0-33.4-7.2-33.4-30.8C332.6,123.1,351.6,115.4,367,115.4z
		 M331.8,186.4c2-0.1,4.1-0.3,5.4-0.4c1.5-0.1,2.7-0.4,3.7-0.4c0.6,0,1,0.2,1,0.8c0,0.5-0.2,1-0.5,1.8l-20.9,46.4
		c-0.3,1,0.2,1,0.7,0.8c2.8-1.6,5.4-5.1,6.3-5.9c0.6-0.5,1.5,0.1,1,0.9c-2.3,3.4-6.1,7.4-9.8,8.9c-0.5,0.3-1.4,0.5-2.1,0.5
		c-1.4,0-2.3-1-2.3-2.3c0-1,0.7-2.5,1-3.3c6.5-14.7,13.2-29.3,20-44c0.2-0.5,0.3-1.1,0.3-1.3c0-0.3-0.1-0.6-0.6-0.7
		c-1.1-0.3-2.1-0.3-3.1-0.3c-0.5,0-0.9-0.2-0.9-0.7C331,186.9,331.3,186.4,331.8,186.4z M263,175.1c4.1-0.5,5.5-4.5,5.6-9.3
		c0.5-13.2,0.5-29.5,0.4-42c0-5.2-4-5.6-5.9-6c-1-0.2-1-2,0.8-2l0-0.1h14.2l40.3,45.1c0,0-0.5-27.3-0.7-36.1c-0.2-6-6.5-6.7-8.5-7
		c-1,0-1.5-2,0.7-2h18.4c1.5,0,2,2-0.3,2.2c-4.5,0.4-6,2.6-6.2,6.8c-0.3,3.6-0.3,50.7-0.3,50.7h-3.8L272.4,125
		c0,0,0.3,32.3,0.7,40.8c0.3,8.8,4.8,8.8,7.6,9.3c1.2,0.2,0.9,1.8-0.1,1.8h-18.1C261.5,176.9,261.5,175.2,263,175.1z M230.3,115.8
		h25.1c2,0,1.7,2,0.2,2c-4,0.2-7.8,1.7-7.8,7v42.5c0,4.3,2,7.8,7.3,7.8c2.1,0,1.8,1.8,0.5,1.8H231c-1.7,0-2.2-1.8,0-1.8
		c5.5,0,7.3-3,7.3-7.8v-42.5c0-4.7-4.5-6.6-8.3-7C228.3,117.7,228.5,115.8,230.3,115.8z M110.6,236.5c4-0.3,13.5-0.8,14.1-16
		c0.7-15.8,0.3-82.3,0-89.6c-0.1-5-4.3-11.8-15.4-11.8c-1.8,0-1.5-3,0.5-3h47.1c1.8,0,2.8,2.9-0.2,3.2s-14.5,0.6-14.8,15.9
		c-0.4,15.3-0.4,39-0.4,40c0,1.3,0.5,2.5,2.3,1.3c5.4-3.7,21.6-19.5,33.6-33c4.8-5.3,8-10,10.3-14.4c0.2-1.3,0.7-2.6,0.7-4.1
		c0-1.9-0.8-3.8-3.3-4.7c-2.1-0.8-4-1-6.1-1.3c-3-0.5-2.4-3.4,0.3-3.4c1.8,0,10.1,0.7,20.1,0.7c5.8,0,14-0.3,18.1-0.5
		c2.5-0.2,2.8,2.5,1,3s-10,2.5-24.8,16.1c-15.3,14-35,34.9-35,34.9s44.3,52.8,52.1,59.1c8,6.5,13.5,7,19.6,7.5c1.5,0.1,2,3,0,3
		h-34.6c0,0-42.9-51.8-49.9-56.6c-1.2-0.8-4.3-1.8-4.5,1.8c-0.3,3.3-0.5,30.8,0.2,36.8c0.8,6,3.3,14.8,17.6,14.8
		c1.8,0,2.8,3.3,0.3,3.3c-8.4-0.4-14.8-0.4-25.2-0.4c-9,0-21.6,0.4-23.4,0.4C107.9,239.5,107.9,236.7,110.6,236.5z M217.8,285.9
		c0,16.5-11.1,27.3-26.6,27.3c-16,0-26.4-11.8-26.4-27.3c0-14.3,11-26.3,26.4-26.3C207,259.6,217.8,271.4,217.8,285.9z M113.9,310.8
		c3,0,6.7-1.4,6.7-6.9V268c0-4.6-2.7-6.5-7.2-6.5c-1.1,0.1-1.2-1.7,0.1-1.7H135c1.1,0,1.4,1.8,0.1,1.8c-2.1,0-6.4,1-6.4,5.5v37.4
		c0,4.3,2.1,5.8,11.4,5.8c8.9,0,17.4-1.1,21.6-13c0.3-1,1.9-0.9,1.7,0.6l-2.8,14.8h-46.4C112.6,312.7,112.9,310.8,113.9,310.8z
		 M451,349H114.2v-7.3H451V349z M451,334.7H114.2v-3.2H451V334.7z M458.4,261.3c-4.8,0-6.7,2.4-6.7,6.8l-0.3,44.6h-2.7
		c-0.3-0.2-39.9-46.8-39.9-46.8l0.3,37.8c0.1,6.4,4,7.4,6.3,7.4c1.2,0,1.2,1.7,0.2,1.7h-15.5c-1,0-1-1.7,0.2-1.7
		c3.8,0,5.2-3.4,5.2-7.4l0.3-37.1c0-4.6-3.2-5-4.7-5c-1.4,0-1.1-1.8-0.1-1.8h13.7l34,40.1l-0.4-32.5c-0.1-5.8-5.4-6.1-7.2-6.1
		c-1,0-1-1.5,0-1.5h17.3C459.4,259.8,459.4,261.3,458.4,261.3z"/>
	<path class="st0" d="M383.5,206.1c0-2.4-1.2-3.4-3.5-3.4c-2.9,0-5.8,2.2-7.5,3.9c-2.9,2.8-5.8,6.3-8.2,10.6c2,0,5.8-1,9.3-2.1
		C378.8,213.4,383.5,210.7,383.5,206.1z"/>
	<path class="st0" d="M411,201.6c-3.4,0-7.1,3.5-9.8,7.8c-1.8,2.7-2.8,5.8-2.8,8.1c0,2.7,1,4.5,3.3,4.5c2.7,0,5.8-1.2,9.7-7.6
		c2.1-3.5,3-6.8,3-9.2C414.4,202.7,413.3,201.6,411,201.6z"/>
	<path class="st0" d="M291.1,237c7.8,0,19.4-19.2,19.4-29.3c0-3.1-0.9-6.3-4.6-6.3c-7.9,0-19.3,18.8-19.3,30.3
		C286.6,234.7,287.9,237,291.1,237z"/>
	<path class="st0" d="M371,310.7c11.1,0,18.1-7.6,18.1-24.9c0-14.1-7.8-24-18.1-24c-11.5,0-17.8,10.5-17.8,24
		C353.2,300.4,360.2,310.7,371,310.7z"/>
	<path class="st0" d="M384.1,246.9c0,2.6,2.7,8,12,8c3.5,0,10.6-1.1,10.7-5.9c0-1.8-1-3.8-6-7.3c-1.1-1-4.5-3-6.8-4
		c-2.1,0.8-4.6,2.1-6.4,3.3C385.1,242.8,384.1,244.4,384.1,246.9z"/>
	<path class="st0" d="M451.2,206.1c0-2.4-1.1-3.4-3.5-3.4c-2.8,0-5.8,2.2-7.5,3.9c-2.8,2.8-5.8,6.3-8.1,10.6c1.7,0,5.7-1,9.2-2.1
		C446.4,213.4,451.2,210.7,451.2,206.1z"/>
</g>
<g>
	<path class="st0" d="M640.9,158.4v13.8h14.8v11.6h-14.8V209h-14v-63.3h30.7v12.6L640.9,158.4L640.9,158.4z"/>
	<path class="st0" d="M698.8,207.6c-0.3,0.2-0.8,0.5-1.4,0.8c-0.6,0.3-1.3,0.6-2.1,0.8s-1.6,0.5-2.6,0.6c-0.9,0.2-1.8,0.2-2.6,0.2
		c-1.6,0-3-0.2-4-0.5s-1.8-0.7-2.3-1.3c-0.6-0.5-1-1.2-1.3-1.9s-0.5-1.6-0.7-2.4l-0.7,1.5c-0.5,1.1-1.6,2.1-3.2,3.1
		c-1.6,1-3.7,1.5-6.3,1.5c-2.3,0-4.2-0.4-5.8-1.2s-2.8-1.9-3.8-3.3c-1-1.3-1.7-2.9-2.1-4.6c-0.4-1.7-0.7-3.4-0.7-5.2
		c0-4,0.9-7.1,2.8-9.5c1.9-2.4,4.9-4,9-4.8l4.9-1.1c1.3-0.3,2.3-0.6,3-0.9c0.8-0.3,1.4-0.7,1.8-1.2c0.4-0.5,0.7-1,0.9-1.7
		s0.2-1.5,0.2-2.5c0-2.3-0.4-3.8-1.3-4.7c-0.9-0.9-2.2-1.4-3.9-1.4c-1.6,0-2.9,0.5-4,1.4s-1.6,2.1-1.6,3.5c0,0.8,0.1,1.5,0.2,2.1
		c0.1,0.6,0.3,1.2,0.5,1.9l-10.9,0.2c-0.2-0.9-0.4-1.7-0.5-2.4s-0.2-1.6-0.2-2.7c0-2.1,0.4-4,1.3-5.4c0.9-1.5,2.1-2.7,3.6-3.7
		s3.3-1.7,5.3-2.1c2-0.4,4.2-0.7,6.5-0.7c3.3,0,6.1,0.3,8.4,0.8c2.3,0.5,4.1,1.2,5.5,2.2c1.4,0.9,2.4,2,3,3.3s0.9,2.7,0.9,4.3v27.5
		c0,0.9,0.3,1.6,0.9,2c0.6,0.5,1.3,0.7,2.1,0.7c0.4,0,0.8-0.1,1.2-0.2L698.8,207.6L698.8,207.6z M681.8,185.6
		c-0.6,0.3-1.3,0.6-2,0.9c-0.7,0.3-1.4,0.5-2,0.7c-1.2,0.3-2.1,0.7-2.9,1.1c-0.8,0.4-1.4,0.9-1.8,1.4c-0.4,0.5-0.7,1.2-0.9,2
		s-0.2,1.7-0.2,2.7c0,2.1,0.3,3.7,0.9,4.8c0.6,1.1,1.7,1.7,3.3,1.7c0.8,0,1.5-0.1,2.2-0.3s1.3-0.7,1.8-1.4s0.9-1.8,1.2-3.2
		s0.5-3.3,0.5-5.6L681.8,185.6L681.8,185.6z"/>
	<path class="st0" d="M736.2,194.6c0,1.8-0.2,3.6-0.7,5.4c-0.5,1.8-1.3,3.5-2.6,5c-1.2,1.5-2.8,2.7-4.9,3.6c-2,0.9-4.6,1.4-7.7,1.4
		c-3,0-5.7-0.3-8.1-1c-2.4-0.7-4.4-1.9-6-3.6c-1.6-1.7-2.9-4.1-3.7-7c-0.9-3-1.3-6.7-1.3-11.2c0-5.1,0.5-9.4,1.4-12.8
		s2.2-6.2,3.9-8.3c1.6-2.1,3.6-3.5,5.9-4.4c2.3-0.9,4.8-1.3,7.5-1.3c3,0,5.5,0.4,7.5,1.2s3.5,1.9,4.7,3.3s2,3,2.4,4.9
		c0.5,1.9,0.7,3.8,0.7,5.9c0,1.5-0.1,2.9-0.2,4l-11.1,0.3c0.2-0.8,0.2-1.7,0.2-2.8c0-2.2-0.4-3.9-1.1-5.1c-0.7-1.2-1.8-1.8-3.3-1.8
		c-1,0-1.9,0.2-2.6,0.7c-0.7,0.4-1.2,1.2-1.6,2.3c-0.4,1.1-0.6,2.5-0.8,4.3c-0.1,1.8-0.2,4.1-0.2,6.9c0,3.2,0.1,5.9,0.2,7.9
		c0.2,2,0.5,3.6,0.9,4.7c0.4,1.1,1,1.9,1.6,2.3c0.7,0.4,1.6,0.6,2.6,0.6s1.9-0.3,2.5-0.9c0.6-0.6,1.1-1.4,1.4-2.3
		c0.3-0.9,0.5-1.9,0.6-3s0.1-2.2,0.1-3.2c0-1.2-0.1-2.1-0.3-2.7l11.3,0.6c0.2,0.8,0.3,1.7,0.4,2.8
		C736.1,192.2,736.2,193.4,736.2,194.6z"/>
	<path class="st0" d="M761.8,209v-7.7c-0.8,2.7-2.1,4.8-3.9,6.3c-1.8,1.5-4.1,2.3-6.9,2.3c-1.3,0-2.6-0.2-3.9-0.7
		c-1.3-0.4-2.4-1.1-3.3-2c-1-0.9-1.7-2.1-2.3-3.5s-0.9-3.1-0.9-5v-37.1h13V195c0,1.1,0.2,2,0.7,2.6s1.2,0.9,2.3,0.9
		c1.5,0,2.8-0.8,3.7-2.5c0.9-1.6,1.4-4.1,1.4-7.5v-26.9h13V209H761.8z"/>
	<path class="st0" d="M781,209v-63.3h13V209H781z"/>
	<path class="st0" d="M827.6,207c-0.4,0.3-1,0.6-1.9,0.9c-0.9,0.3-1.9,0.6-3.1,0.9s-2.4,0.5-3.7,0.7s-2.6,0.2-3.8,0.2
		c-1.7,0-3.2-0.2-4.6-0.5c-1.4-0.3-2.5-0.9-3.5-1.6c-1-0.8-1.7-1.8-2.2-3c-0.5-1.3-0.8-2.8-0.8-4.7l0.2-29.2h-7v-8.9h7.2l0.3-13H817
		v13h9.9v8.9H817v23.9c0,0.9,0.2,1.7,0.5,2.2c0.4,0.5,0.8,1,1.4,1.2c0.6,0.3,1.2,0.5,1.9,0.5c0.7,0.1,1.4,0.1,2,0.1
		c1,0,1.9-0.1,2.7-0.3c0.7-0.2,1.4-0.4,2.1-0.7L827.6,207L827.6,207z"/>
	<path class="st0" d="M855.7,209.5c-0.4,2-0.9,3.8-1.5,5.6c-0.6,1.7-1.4,3.3-2.4,4.6s-2.4,2.4-4.1,3.1c-1.7,0.8-3.9,1.2-6.6,1.2
		c-2.3,0-4.2-0.2-5.6-0.7c-1.5-0.5-2.6-1.2-3.5-2.1c-0.9-0.9-1.5-1.9-1.8-3.2c-0.3-1.2-0.5-2.6-0.5-4.1c0-0.6,0-1.2,0.1-1.6
		c0.1-0.5,0.1-1,0.2-1.6h8.2c-0.1,0.5-0.2,1-0.2,1.6c-0.1,0.5-0.1,1.1-0.1,1.6c0,0.8,0.2,1.5,0.7,2s1.3,0.7,2.5,0.7
		c1.4,0,2.4-0.6,3-1.7c0.5-1.1,0.8-2.6,0.8-4.5c0-0.7-0.1-1.4-0.3-2.3c-0.2-0.9-0.5-1.7-0.7-2.6l-14.4-43.7H844l6.6,27.8l5.4-27.8
		h12.4L855.7,209.5z"/>
	<path class="st0" d="M925.5,185.1c0,4-0.2,7.6-0.7,10.6c-0.5,3.1-1.3,5.7-2.6,7.7c-1.3,2.1-3,3.7-5.2,4.7c-2.2,1.1-5,1.6-8.5,1.6
		c-3.3,0-6.1-0.5-8.4-1.4c-2.3-0.9-4.1-2.3-5.5-4.2s-2.4-4.4-3-7.3c-0.6-3-0.9-6.5-0.9-10.7c0-8.9,1.4-15.4,4.3-19.6
		c2.9-4.2,7.2-6.3,12.9-6.3c3.4,0,6.2,0.5,8.5,1.6c2.3,1,4.1,2.6,5.4,4.7c1.3,2.1,2.3,4.7,2.8,7.8
		C925.2,177.4,925.5,181,925.5,185.1z M912.1,185.8c0-3.2-0.1-5.8-0.2-7.8c-0.1-2-0.3-3.6-0.6-4.8s-0.7-2-1.2-2.4s-1.2-0.7-2.1-0.7
		c-0.9,0-1.6,0.2-2.1,0.7c-0.5,0.4-0.9,1.2-1.2,2.4s-0.5,2.8-0.5,4.8c-0.1,2-0.1,4.6-0.1,7.8c0,3,0.1,5.4,0.2,7.2
		c0.1,1.8,0.4,3.1,0.7,4s0.7,1.5,1.2,1.7s1.1,0.4,1.8,0.4c0.8,0,1.4-0.1,1.9-0.4c0.5-0.3,0.9-0.9,1.2-1.8c0.3-0.9,0.6-2.2,0.7-4
		C912,191.2,912.1,188.8,912.1,185.8z"/>
	<path class="st0" d="M958.6,153.9c0,0.9-0.1,1.7-0.2,2.5c-0.1,0.8-0.3,1.5-0.5,2.1l-7.6-0.3c0.1-0.4,0.2-0.9,0.2-1.4s0-1,0-1.6
		c0-0.8-0.1-1.5-0.4-2.1c-0.3-0.6-0.9-0.9-1.8-0.9c-0.8,0-1.4,0.4-1.9,1.2c-0.4,0.8-0.6,2.3-0.6,4.5c0,0.7,0,1.4,0,2.1
		c0,0.7,0.1,1.3,0.1,1.9h10.7v8.9h-10.3V209h-13v-38.4H927v-8.9h6.3V157c0-3.8,1.2-6.8,3.6-8.9c2.4-2.2,5.8-3.3,10-3.3
		s7.3,0.8,9,2.3C957.8,148.6,958.6,150.9,958.6,153.9z"/>
	<path class="st0" d="M1002.9,209l-1.8-11h-9.3l-1.6,11h-11.9l12.1-63.3h14l13.4,63.3H1002.9z M995.8,169.3l-2.8,19.9h6.6
		L995.8,169.3z"/>
	<path class="st0" d="M1054,173.1c0,2.1-0.1,4-0.2,5.7c-0.1,1.6-0.3,3-0.5,4.1l-11.1,2.1c0.1-0.8,0.2-1.7,0.3-2.7
		c0.1-1,0.1-2.1,0.1-3.4c0-2.2-0.3-3.7-0.9-4.6c-0.6-0.9-1.5-1.3-2.6-1.3c-0.9,0-1.6,0.3-2.1,1s-1,1.6-1.3,2.7
		c-0.3,1.1-0.6,2.4-0.7,3.9s-0.2,3-0.2,4.7V209h-13v-47.3h12.8c0,1.1,0,2.2,0.1,3.2c0.1,0.9,0.1,1.9,0.1,2.8c0,0.9,0,1.8,0,2.6
		l0.6-1.6c0.3-1,0.8-2,1.4-2.9c0.6-1,1.2-1.8,2-2.5c0.7-0.7,1.6-1.3,2.5-1.7s1.9-0.7,3-0.7c3.3,0,5.8,1,7.4,3
		C1053.2,165.8,1054,168.9,1054,173.1z"/>
	<path class="st0" d="M1086.2,207c-0.4,0.3-1,0.6-1.9,0.9c-0.9,0.3-1.9,0.6-3.1,0.9s-2.4,0.5-3.7,0.7c-1.3,0.2-2.6,0.2-3.8,0.2
		c-1.7,0-3.2-0.2-4.6-0.5s-2.5-0.9-3.5-1.6c-1-0.8-1.7-1.8-2.2-3c-0.5-1.3-0.8-2.8-0.8-4.7l0.2-29.2h-7v-8.9h7.2l0.3-13h12.4v13h9.9
		v8.9h-9.9v23.9c0,0.9,0.2,1.7,0.5,2.2c0.4,0.5,0.8,1,1.4,1.2c0.6,0.3,1.2,0.5,1.9,0.5c0.7,0.1,1.4,0.1,2,0.1c1,0,1.9-0.1,2.7-0.3
		c0.7-0.2,1.4-0.4,2.1-0.7L1086.2,207L1086.2,207z"/>
	<path class="st0" d="M1123.9,194.8c0,2.5-0.3,4.7-0.9,6.5c-0.6,1.9-1.7,3.5-3.1,4.7c-1.4,1.3-3.3,2.2-5.6,2.8
		c-2.3,0.6-5.1,0.9-8.4,0.9c-5.8,0-10-1-12.6-3s-3.9-5-3.9-8.9c0-1,0.1-2.1,0.3-3c0.2-1,0.4-1.9,0.7-2.8l10,0.7
		c-0.2,1-0.3,2.1-0.3,3c0,1.8,0.4,3.1,1.2,4c0.8,0.9,2,1.4,3.8,1.4c1,0,1.8-0.2,2.4-0.5c0.6-0.4,1.1-0.8,1.4-1.3s0.6-1,0.7-1.6
		s0.2-1.1,0.2-1.5c0-1.3-0.4-2.3-1.1-3.1s-2-1.6-3.7-2.4l-5.1-2.4c-1-0.5-2.2-1.1-3.3-1.8c-1.2-0.7-2.3-1.6-3.3-2.7
		c-1-1.1-1.9-2.4-2.6-4s-1-3.4-1-5.6c0-2.3,0.4-4.2,1.3-6c0.9-1.7,2.1-3.2,3.6-4.4s3.3-2.1,5.3-2.7c2-0.6,4.1-0.9,6.4-0.9
		c2.1,0,4.2,0.2,6.1,0.7s3.5,1.2,4.9,2.1c1.4,1,2.5,2.2,3.3,3.6c0.8,1.5,1.2,3.2,1.2,5.2c0,0.9-0.1,1.6-0.2,2.3s-0.3,1.3-0.6,2
		l-9.8-0.2c0.2-0.5,0.3-1,0.3-1.4c0.1-0.5,0.1-1.1,0.1-1.9c0-1.3-0.4-2.3-1.2-3c-0.8-0.7-1.9-1-3.3-1s-2.5,0.4-3.1,1.2
		c-0.7,0.8-1,1.8-1,3c0,1.4,0.5,2.4,1.4,3.2s2.2,1.5,3.8,2.2l6.3,2.7c1.3,0.6,2.6,1.3,3.7,2s2.2,1.6,3,2.7c0.9,1,1.5,2.3,2,3.7
		C1123.6,190.9,1123.9,192.7,1123.9,194.8z"/>
	<path class="st0" d="M674.6,296.3c0,2.9-0.3,5.1-0.9,6.8c-0.6,1.7-1.5,3-2.6,3.9s-2.4,1.5-3.8,1.8c-1.4,0.3-3,0.4-4.6,0.4
		c-1.4,0-2.7-0.1-3.7-0.3c-1-0.2-2-0.5-2.8-0.9s-1.6-1-2.3-1.6s-1.4-1.5-2-2.5c-2.2,2.3-4.3,3.7-6.2,4.4c-1.9,0.7-3.9,1-6,1
		c-2.8,0-5.2-0.5-7.1-1.5s-3.5-2.4-4.7-4c-1.2-1.7-2-3.6-2.6-5.8c-0.5-2.2-0.8-4.5-0.8-6.9c0-4.8,1-9,3.1-12.4s5.1-6.6,9.3-9.6
		l1.4-1c-0.5-1.3-1-2.7-1.4-4.3c-0.4-1.6-0.6-3.7-0.6-6.3c0-2.1,0.4-4.1,1.1-5.8c0.7-1.7,1.7-3.1,2.9-4.3s2.7-2,4.3-2.7
		c1.6-0.6,3.4-0.9,5.3-0.9c1.8,0,3.5,0.3,5.1,0.9c1.6,0.6,2.9,1.5,4,2.6s2,2.4,2.6,3.9s0.9,3.1,0.9,4.9c0,1.5-0.1,2.8-0.4,4.1
		c-0.3,1.2-0.8,2.4-1.6,3.4s-1.9,2-3.2,2.9s-3.1,1.7-5.2,2.5l5,12.7c0.6-1,1.1-2,1.5-2.9s0.8-1.9,1.3-3c0.5-1.2,1-2.7,1.5-4.4
		c0.5-1.7,0.9-3.2,1.2-4.5h7.7c-0.6,2.5-1.3,5-2,7.5c-0.7,2.6-1.6,5-2.7,7.3c-0.4,1-0.8,1.9-1.2,2.7c-0.4,0.8-0.8,1.6-1.2,2.3
		c-0.4,0.8-0.8,1.5-1.2,2.3s-0.9,1.6-1.4,2.6l0.9,2.6c0.3,1,0.8,2,1.4,2.9c0.6,1,1.3,1.4,2.2,1.4c0.4,0,0.8-0.1,1.1-0.4
		s0.5-0.6,0.6-1s0.2-0.8,0.3-1.2c0.1-0.4,0.1-0.8,0.1-1.2c0-0.9-0.1-2.1-0.2-3.5c-0.1-1.4-0.2-2.5-0.4-3.3h7
		c0.3,1.2,0.5,2.6,0.7,4.2C674.6,293.6,674.6,295,674.6,296.3z M640.9,276.6c-2.1,2.6-3.1,5.6-3.1,9.1c0,1.3,0.1,2.7,0.4,4
		c0.2,1.4,0.6,2.6,1.1,3.7s1.1,2,1.9,2.7c0.8,0.7,1.7,1,2.8,1c0.9,0,1.7-0.2,2.5-0.7s1.4-1,1.9-1.6L640.9,276.6z M654,255.5
		c0-1.3-0.2-2.3-0.7-3s-1.3-1.1-2.3-1.1c-0.9,0-1.7,0.2-2.2,0.7s-0.8,1.5-0.8,3c0,1,0.2,2.2,0.7,3.6c0.4,1.3,0.9,2.4,1.3,3.2
		c0.4-0.2,0.8-0.4,1.3-0.7c0.5-0.3,0.9-0.8,1.3-1.3c0.4-0.5,0.8-1.1,1-1.9C653.8,257.3,654,256.4,654,255.5z"/>
	<path class="st0" d="M722.9,307.9v-29.2h-8.3v29.2h-14v-63.3h14v23.5h8.3v-23.5h14v63.3L722.9,307.9L722.9,307.9z"/>
	<path class="st0" d="M764.7,307.9v-7.7c-0.8,2.7-2.1,4.8-3.9,6.3c-1.8,1.5-4.1,2.3-6.9,2.3c-1.3,0-2.6-0.2-3.9-0.7
		c-1.3-0.4-2.4-1.1-3.3-2c-1-0.9-1.7-2.1-2.3-3.5s-0.9-3.1-0.9-5v-37.1h13v33.4c0,1.1,0.2,2,0.7,2.6s1.2,0.9,2.3,0.9
		c1.5,0,2.8-0.8,3.7-2.5c0.9-1.6,1.4-4.1,1.4-7.5v-26.9h13v47.3h-12.9V307.9z"/>
	<path class="st0" d="M826,307.9v-33.5c0-1.1-0.2-1.9-0.7-2.6c-0.5-0.6-1.2-0.9-2.3-0.9c-1.5,0-2.8,0.9-3.7,2.7
		c-0.9,1.8-1.4,4.2-1.4,7.3v27H805v-33.5c0-1.1-0.2-1.9-0.7-2.6c-0.5-0.6-1.2-0.9-2.3-0.9c-1.5,0-2.8,0.8-3.7,2.5s-1.4,4.2-1.4,7.5
		v13.4c0,1.7,0,3.4,0,4.9c0,1.6,0,3,0,4.3s0,2.3,0,3.1c0,0.8,0,1.2,0,1.2h-13v-47.3h12.9v7.7c0.8-2.7,2.1-4.8,3.9-6.3
		c1.8-1.5,4.2-2.3,7-2.3c2.7,0,5,0.7,6.8,2.1c1.9,1.4,3,3.6,3.4,6.5c0.8-2.7,2.1-4.8,3.9-6.3c1.8-1.5,4.1-2.3,6.9-2.3
		c1.3,0,2.6,0.2,3.9,0.7c1.3,0.4,2.4,1.1,3.3,2c1,0.9,1.7,2.1,2.3,3.5s0.9,3.1,0.9,5v37.1L826,307.9L826,307.9z"/>
	<path class="st0" d="M883.3,306.4c-0.3,0.2-0.8,0.5-1.4,0.8c-0.6,0.3-1.3,0.6-2.1,0.8c-0.8,0.2-1.6,0.5-2.6,0.6
		c-0.9,0.2-1.8,0.2-2.6,0.2c-1.6,0-3-0.2-4-0.5s-1.8-0.7-2.3-1.3c-0.6-0.5-1-1.2-1.3-1.9c-0.3-0.7-0.5-1.6-0.7-2.4l-0.7,1.5
		c-0.5,1.1-1.6,2.1-3.2,3.1s-3.7,1.5-6.3,1.5c-2.3,0-4.2-0.4-5.8-1.2c-1.6-0.8-2.8-1.9-3.8-3.3c-1-1.3-1.7-2.9-2.1-4.6
		c-0.4-1.7-0.7-3.4-0.7-5.2c0-4,0.9-7.1,2.8-9.5c1.9-2.4,4.9-4,9-4.8l4.9-1.1c1.3-0.3,2.3-0.6,3-0.9c0.8-0.3,1.4-0.7,1.8-1.2
		c0.4-0.5,0.7-1,0.9-1.7s0.2-1.5,0.2-2.5c0-2.3-0.4-3.8-1.3-4.7c-0.9-0.9-2.2-1.4-3.9-1.4c-1.6,0-2.9,0.5-4,1.4s-1.6,2.1-1.6,3.5
		c0,0.8,0.1,1.5,0.2,2.1c0.1,0.6,0.3,1.2,0.5,1.9l-10.9,0.2c-0.2-0.9-0.4-1.7-0.5-2.4c-0.1-0.7-0.2-1.6-0.2-2.7c0-2.1,0.4-4,1.3-5.4
		c0.9-1.5,2.1-2.7,3.6-3.7s3.3-1.7,5.3-2.1s4.2-0.7,6.5-0.7c3.3,0,6.1,0.3,8.4,0.8c2.3,0.5,4.1,1.2,5.5,2.2s2.4,2,3,3.3
		s0.9,2.7,0.9,4.3v27.5c0,0.9,0.3,1.6,0.9,2c0.6,0.5,1.3,0.7,2.1,0.7c0.4,0,0.8-0.1,1.2-0.2L883.3,306.4L883.3,306.4z M866.3,284.4
		c-0.6,0.3-1.3,0.6-2,0.9s-1.4,0.5-2,0.7c-1.2,0.3-2.1,0.7-2.9,1.1c-0.8,0.4-1.4,0.9-1.8,1.4c-0.4,0.5-0.7,1.2-0.9,2
		s-0.2,1.7-0.2,2.7c0,2.1,0.3,3.7,0.9,4.8c0.6,1.1,1.7,1.7,3.3,1.7c0.8,0,1.5-0.1,2.2-0.3c0.7-0.2,1.3-0.7,1.8-1.4
		c0.5-0.7,0.9-1.8,1.2-3.2c0.3-1.4,0.5-3.3,0.5-5.6L866.3,284.4L866.3,284.4z"/>
	<path class="st0" d="M908.4,307.9v-33.4c0-1.1-0.2-1.9-0.7-2.6c-0.5-0.6-1.2-0.9-2.3-0.9c-1.5,0-2.8,0.9-3.7,2.7
		c-0.9,1.8-1.4,4.2-1.4,7.3v26.9h-13v-47.3h12.9v7.7c0.8-2.7,2.1-4.8,3.9-6.3c1.8-1.5,4.1-2.3,6.9-2.3c1.3,0,2.6,0.2,3.9,0.7
		c1.3,0.4,2.4,1.1,3.3,2c1,0.9,1.7,2.1,2.3,3.5s0.9,3.1,0.9,5V308h-13V307.9z"/>
	<path class="st0" d="M927.4,256.5v-11.9h13v11.9H927.4z M927.4,307.9v-47.3h13v47.3H927.4z"/>
	<path class="st0" d="M974,305.8c-0.4,0.3-1,0.6-1.9,0.9s-1.9,0.6-3.1,0.9s-2.4,0.5-3.7,0.7s-2.6,0.2-3.8,0.2
		c-1.7,0-3.2-0.2-4.6-0.5c-1.4-0.3-2.5-0.9-3.5-1.6c-1-0.8-1.7-1.8-2.2-3c-0.5-1.3-0.8-2.8-0.8-4.7l0.2-29.2h-7v-8.9h7.2l0.3-13
		h12.4v13h9.9v8.9h-9.9v23.9c0,0.9,0.2,1.7,0.5,2.2c0.4,0.5,0.8,1,1.4,1.2c0.6,0.3,1.2,0.5,1.9,0.5c0.7,0.1,1.4,0.1,2,0.1
		c1,0,1.9-0.1,2.7-0.3c0.7-0.2,1.4-0.4,2.1-0.7v9.4H974z"/>
	<path class="st0" d="M978.8,256.5v-11.9h13v11.9H978.8z M978.8,307.9v-47.3h13v47.3H978.8z"/>
	<path class="st0" d="M1009.7,286.8c0,2.6,0.1,4.7,0.3,6.3c0.2,1.6,0.5,2.8,1,3.6c0.4,0.8,1,1.4,1.7,1.6c0.7,0.3,1.5,0.4,2.5,0.4
		c1.8,0,3-0.6,3.7-1.7c0.7-1.2,0.9-2.7,0.8-4.8l-0.2-1.9l11.3,0.3c0.2,0.9,0.2,2.1,0.2,3.5c0,2-0.3,3.9-0.8,5.7
		c-0.5,1.8-1.4,3.3-2.7,4.7c-1.2,1.3-2.8,2.4-4.8,3.1c-2,0.8-4.4,1.2-7.3,1.2c-2.9,0-5.4-0.3-7.7-0.9s-4.3-1.8-5.9-3.6
		c-1.6-1.8-2.9-4.2-3.8-7.3c-0.9-3.1-1.3-7.1-1.3-12.1c0-9.1,1.5-15.7,4.6-19.7c3-4,7.4-6.1,13.1-6.1c5.2,0,9,1.6,11.5,4.9
		c2.5,3.3,4.1,7.9,4.7,13.9c0.2,1.6,0.3,3.2,0.4,4.7s0.2,2.9,0.2,4.4L1009.7,286.8z M1018.4,280.1c-0.1-2.3-0.2-4.2-0.4-5.7
		c-0.1-1.5-0.3-2.6-0.6-3.5s-0.7-1.5-1.2-1.8c-0.5-0.4-1.2-0.5-2-0.5c-1.8,0-2.9,1-3.5,2.9c-0.6,2-1,4.8-1.1,8.6H1018.4z"/>
	<path class="st0" d="M1069,293.6c0,2.5-0.3,4.7-0.9,6.5c-0.6,1.9-1.7,3.5-3.1,4.7c-1.4,1.3-3.3,2.2-5.6,2.8
		c-2.3,0.6-5.1,0.9-8.4,0.9c-5.8,0-10-1-12.6-3s-3.9-5-3.9-8.9c0-1,0.1-2.1,0.3-3s0.4-1.9,0.7-2.8l10,0.7c-0.2,1-0.3,2.1-0.3,3
		c0,1.8,0.4,3.1,1.2,4c0.8,0.9,2,1.4,3.8,1.4c1,0,1.8-0.2,2.4-0.5c0.6-0.4,1.1-0.8,1.4-1.3s0.6-1,0.7-1.6s0.2-1.1,0.2-1.5
		c0-1.3-0.4-2.3-1.1-3.1c-0.7-0.8-2-1.6-3.7-2.4l-5.1-2.4c-1-0.5-2.2-1.1-3.3-1.8c-1.2-0.7-2.3-1.6-3.3-2.7s-1.9-2.4-2.6-4
		s-1-3.4-1-5.6c0-2.3,0.4-4.2,1.3-6c0.9-1.7,2.1-3.2,3.6-4.4c1.5-1.2,3.3-2.1,5.3-2.7s4.1-0.9,6.4-0.9c2.1,0,4.2,0.2,6.1,0.7
		s3.5,1.2,4.9,2.1c1.4,1,2.5,2.2,3.3,3.6c0.8,1.5,1.2,3.2,1.2,5.2c0,0.9-0.1,1.6-0.2,2.3c-0.1,0.7-0.3,1.3-0.6,2l-9.8-0.2
		c0.2-0.5,0.3-1,0.3-1.4c0.1-0.5,0.1-1.1,0.1-1.9c0-1.3-0.4-2.3-1.2-3c-0.8-0.7-1.9-1-3.3-1s-2.5,0.4-3.1,1.2c-0.7,0.8-1,1.8-1,3
		c0,1.4,0.5,2.4,1.4,3.2s2.2,1.5,3.8,2.2l6.3,2.7c1.3,0.6,2.6,1.3,3.7,2c1.2,0.7,2.2,1.6,3,2.7c0.9,1,1.5,2.3,2,3.7
		C1068.8,289.8,1069,291.6,1069,293.6z"/>
</g>
</svg>
