<?xml version="1.0" encoding="utf-8"?>
<!-- Generator: Adobe Illustrator 21.1.0, SVG Export Plug-In . SVG Version: 6.00 Build 0)  -->
<svg version="1.1" id="Layer_1" xmlns="http://www.w3.org/2000/svg" xmlns:xlink="http://www.w3.org/1999/xlink" x="0px" y="0px"
	 viewBox="0 0 1200 467.7" style="enable-background:new 0 0 1200 467.7;" xml:space="preserve">
<style type="text/css">
	.st0{fill:#FFFFFF;}
</style>
<g id="Layer_2">
</g>
<g>
	<path class="st0" d="M640.9,158.4v13.8h14.8v11.6h-14.8V209h-14v-63.3h30.7v12.6L640.9,158.4L640.9,158.4z"/>
	<path class="st0" d="M698.8,207.6c-0.3,0.2-0.8,0.5-1.4,0.8c-0.6,0.3-1.3,0.6-2.1,0.8s-1.6,0.5-2.6,0.6c-0.9,0.2-1.8,0.2-2.6,0.2
		c-1.6,0-3-0.2-4-0.5s-1.8-0.7-2.3-1.3c-0.6-0.5-1-1.2-1.3-1.9s-0.5-1.6-0.7-2.4l-0.7,1.5c-0.5,1.1-1.6,2.1-3.2,3.1
		c-1.6,1-3.7,1.5-6.3,1.5c-2.3,0-4.2-0.4-5.8-1.2s-2.8-1.9-3.8-3.3c-1-1.3-1.7-2.9-2.1-4.6c-0.4-1.7-0.7-3.4-0.7-5.2
		c0-4,0.9-7.1,2.8-9.5c1.9-2.4,4.9-4,9-4.8l4.9-1.1c1.3-0.3,2.3-0.6,3-0.9c0.8-0.3,1.4-0.7,1.8-1.2c0.4-0.5,0.7-1,0.9-1.7
		s0.2-1.5,0.2-2.5c0-2.3-0.4-3.8-1.3-4.7c-0.9-0.9-2.2-1.4-3.9-1.4c-1.6,0-2.9,0.5-4,1.4s-1.6,2.1-1.6,3.5c0,0.8,0.1,1.5,0.2,2.1
		c0.1,0.6,0.3,1.2,0.5,1.9l-10.9,0.2c-0.2-0.9-0.4-1.7-0.5-2.4s-0.2-1.6-0.2-2.7c0-2.1,0.4-4,1.3-5.4c0.9-1.5,2.1-2.7,3.6-3.7
		s3.3-1.7,5.3-2.1c2-0.4,4.2-0.7,6.5-0.7c3.3,0,6.1,0.3,8.4,0.8c2.3,0.5,4.1,1.2,5.5,2.2c1.4,0.9,2.4,2,3,3.3s0.9,2.7,0.9,4.3v27.5
		c0,0.9,0.3,1.6,0.9,2c0.6,0.5,1.3,0.7,2.1,0.7c0.4,0,0.8-0.1,1.2-0.2L698.8,207.6L698.8,207.6z M681.8,185.6
		c-0.6,0.3-1.3,0.6-2,0.9c-0.7,0.3-1.4,0.5-2,0.7c-1.2,0.3-2.1,0.7-2.9,1.1c-0.8,0.4-1.4,0.9-1.8,1.4c-0.4,0.5-0.7,1.2-0.9,2
		s-0.2,1.7-0.2,2.7c0,2.1,0.3,3.7,0.9,4.8c0.6,1.1,1.7,1.7,3.3,1.7c0.8,0,1.5-0.1,2.2-0.3s1.3-0.7,1.8-1.4s0.9-1.8,1.2-3.2
		s0.5-3.3,0.5-5.6L681.8,185.6L681.8,185.6z"/>
	<path class="st0" d="M736.2,194.6c0,1.8-0.2,3.6-0.7,5.4c-0.5,1.8-1.3,3.5-2.6,5c-1.2,1.5-2.8,2.7-4.9,3.6c-2,0.9-4.6,1.4-7.7,1.4
		c-3,0-5.7-0.3-8.1-1c-2.4-0.7-4.4-1.9-6-3.6c-1.6-1.7-2.9-4.1-3.7-7c-0.9-3-1.3-6.7-1.3-11.2c0-5.1,0.5-9.4,1.4-12.8
		s2.2-6.2,3.9-8.3c1.6-2.1,3.6-3.5,5.9-4.4c2.3-0.9,4.8-1.3,7.5-1.3c3,0,5.5,0.4,7.5,1.2s3.5,1.9,4.7,3.3s2,3,2.4,4.9
		c0.5,1.9,0.7,3.8,0.7,5.9c0,1.5-0.1,2.9-0.2,4l-11.1,0.3c0.2-0.8,0.2-1.7,0.2-2.8c0-2.2-0.4-3.9-1.1-5.1c-0.7-1.2-1.8-1.8-3.3-1.8
		c-1,0-1.9,0.2-2.6,0.7c-0.7,0.4-1.2,1.2-1.6,2.3c-0.4,1.1-0.6,2.5-0.8,4.3c-0.1,1.8-0.2,4.1-0.2,6.9c0,3.2,0.1,5.9,0.2,7.9
		c0.2,2,0.5,3.6,0.9,4.7c0.4,1.1,1,1.9,1.6,2.3c0.7,0.4,1.6,0.6,2.6,0.6s1.9-0.3,2.5-0.9c0.6-0.6,1.1-1.4,1.4-2.3
		c0.3-0.9,0.5-1.9,0.6-3s0.1-2.2,0.1-3.2c0-1.2-0.1-2.1-0.3-2.7l11.3,0.6c0.2,0.8,0.3,1.7,0.4,2.8
		C736.1,192.2,736.2,193.4,736.2,194.6z"/>
	<path class="st0" d="M761.8,209v-7.7c-0.8,2.7-2.1,4.8-3.9,6.3c-1.8,1.5-4.1,2.3-6.9,2.3c-1.3,0-2.6-0.2-3.9-0.7
		c-1.3-0.4-2.4-1.1-3.3-2c-1-0.9-1.7-2.1-2.3-3.5s-0.9-3.1-0.9-5v-37.1h13V195c0,1.1,0.2,2,0.7,2.6s1.2,0.9,2.3,0.9
		c1.5,0,2.8-0.8,3.7-2.5c0.9-1.6,1.4-4.1,1.4-7.5v-26.9h13V209H761.8z"/>
	<path class="st0" d="M781,209v-63.3h13V209H781z"/>
	<path class="st0" d="M827.6,207c-0.4,0.3-1,0.6-1.9,0.9c-0.9,0.3-1.9,0.6-3.1,0.9s-2.4,0.5-3.7,0.7s-2.6,0.2-3.8,0.2
		c-1.7,0-3.2-0.2-4.6-0.5c-1.4-0.3-2.5-0.9-3.5-1.6c-1-0.8-1.7-1.8-2.2-3c-0.5-1.3-0.8-2.8-0.8-4.7l0.2-29.2h-7v-8.9h7.2l0.3-13H817
		v13h9.9v8.9H817v23.9c0,0.9,0.2,1.7,0.5,2.2c0.4,0.5,0.8,1,1.4,1.2c0.6,0.3,1.2,0.5,1.9,0.5c0.7,0.1,1.4,0.1,2,0.1
		c1,0,1.9-0.1,2.7-0.3c0.7-0.2,1.4-0.4,2.1-0.7L827.6,207L827.6,207z"/>
	<path class="st0" d="M855.7,209.5c-0.4,2-0.9,3.8-1.5,5.6c-0.6,1.7-1.4,3.3-2.4,4.6s-2.4,2.4-4.1,3.1c-1.7,0.8-3.9,1.2-6.6,1.2
		c-2.3,0-4.2-0.2-5.6-0.7c-1.5-0.5-2.6-1.2-3.5-2.1c-0.9-0.9-1.5-1.9-1.8-3.2c-0.3-1.2-0.5-2.6-0.5-4.1c0-0.6,0-1.2,0.1-1.6
		c0.1-0.5,0.1-1,0.2-1.6h8.2c-0.1,0.5-0.2,1-0.2,1.6c-0.1,0.5-0.1,1.1-0.1,1.6c0,0.8,0.2,1.5,0.7,2s1.3,0.7,2.5,0.7
		c1.4,0,2.4-0.6,3-1.7c0.5-1.1,0.8-2.6,0.8-4.5c0-0.7-0.1-1.4-0.3-2.3c-0.2-0.9-0.5-1.7-0.7-2.6l-14.4-43.7H844l6.6,27.8l5.4-27.8
		h12.4L855.7,209.5z"/>
	<path class="st0" d="M925.5,185.1c0,4-0.2,7.6-0.7,10.6c-0.5,3.1-1.3,5.7-2.6,7.7c-1.3,2.1-3,3.7-5.2,4.7c-2.2,1.1-5,1.6-8.5,1.6
		c-3.3,0-6.1-0.5-8.4-1.4c-2.3-0.9-4.1-2.3-5.5-4.2s-2.4-4.4-3-7.3c-0.6-3-0.9-6.5-0.9-10.7c0-8.9,1.4-15.4,4.3-19.6
		c2.9-4.2,7.2-6.3,12.9-6.3c3.4,0,6.2,0.5,8.5,1.6c2.3,1,4.1,2.6,5.4,4.7c1.3,2.1,2.3,4.7,2.8,7.8
		C925.2,177.4,925.5,181,925.5,185.1z M912.1,185.8c0-3.2-0.1-5.8-0.2-7.8c-0.1-2-0.3-3.6-0.6-4.8s-0.7-2-1.2-2.4s-1.2-0.7-2.1-0.7
		c-0.9,0-1.6,0.2-2.1,0.7c-0.5,0.4-0.9,1.2-1.2,2.4s-0.5,2.8-0.5,4.8c-0.1,2-0.1,4.6-0.1,7.8c0,3,0.1,5.4,0.2,7.2
		c0.1,1.8,0.4,3.1,0.7,4s0.7,1.5,1.2,1.7s1.1,0.4,1.8,0.4c0.8,0,1.4-0.1,1.9-0.4c0.5-0.3,0.9-0.9,1.2-1.8c0.3-0.9,0.6-2.2,0.7-4
		C912,191.2,912.1,188.8,912.1,185.8z"/>
	<path class="st0" d="M958.6,153.9c0,0.9-0.1,1.7-0.2,2.5c-0.1,0.8-0.3,1.5-0.5,2.1l-7.6-0.3c0.1-0.4,0.2-0.9,0.2-1.4s0-1,0-1.6
		c0-0.8-0.1-1.5-0.4-2.1c-0.3-0.6-0.9-0.9-1.8-0.9c-0.8,0-1.4,0.4-1.9,1.2c-0.4,0.8-0.6,2.3-0.6,4.5c0,0.7,0,1.4,0,2.1
		c0,0.7,0.1,1.3,0.1,1.9h10.7v8.9h-10.3V209h-13v-38.4H927v-8.9h6.3V157c0-3.8,1.2-6.8,3.6-8.9c2.4-2.2,5.8-3.3,10-3.3
		s7.3,0.8,9,2.3C957.8,148.6,958.6,150.9,958.6,153.9z"/>
	<path class="st0" d="M1002.9,209l-1.8-11h-9.3l-1.6,11h-11.9l12.1-63.3h14l13.4,63.3H1002.9z M995.8,169.3l-2.8,19.9h6.6
		L995.8,169.3z"/>
	<path class="st0" d="M1054,173.1c0,2.1-0.1,4-0.2,5.7c-0.1,1.6-0.3,3-0.5,4.1l-11.1,2.1c0.1-0.8,0.2-1.7,0.3-2.7
		c0.1-1,0.1-2.1,0.1-3.4c0-2.2-0.3-3.7-0.9-4.6c-0.6-0.9-1.5-1.3-2.6-1.3c-0.9,0-1.6,0.3-2.1,1s-1,1.6-1.3,2.7
		c-0.3,1.1-0.6,2.4-0.7,3.9s-0.2,3-0.2,4.7V209h-13v-47.3h12.8c0,1.1,0,2.2,0.1,3.2c0.1,0.9,0.1,1.9,0.1,2.8c0,0.9,0,1.8,0,2.6
		l0.6-1.6c0.3-1,0.8-2,1.4-2.9c0.6-1,1.2-1.8,2-2.5c0.7-0.7,1.6-1.3,2.5-1.7s1.9-0.7,3-0.7c3.3,0,5.8,1,7.4,3
		C1053.2,165.8,1054,168.9,1054,173.1z"/>
	<path class="st0" d="M1086.2,207c-0.4,0.3-1,0.6-1.9,0.9c-0.9,0.3-1.9,0.6-3.1,0.9s-2.4,0.5-3.7,0.7c-1.3,0.2-2.6,0.2-3.8,0.2
		c-1.7,0-3.2-0.2-4.6-0.5s-2.5-0.9-3.5-1.6c-1-0.8-1.7-1.8-2.2-3c-0.5-1.3-0.8-2.8-0.8-4.7l0.2-29.2h-7v-8.9h7.2l0.3-13h12.4v13h9.9
		v8.9h-9.9v23.9c0,0.9,0.2,1.7,0.5,2.2c0.4,0.5,0.8,1,1.4,1.2c0.6,0.3,1.2,0.5,1.9,0.5c0.7,0.1,1.4,0.1,2,0.1c1,0,1.9-0.1,2.7-0.3
		c0.7-0.2,1.4-0.4,2.1-0.7L1086.2,207L1086.2,207z"/>
	<path class="st0" d="M1123.9,194.8c0,2.5-0.3,4.7-0.9,6.5c-0.6,1.9-1.7,3.5-3.1,4.7c-1.4,1.3-3.3,2.2-5.6,2.8
		c-2.3,0.6-5.1,0.9-8.4,0.9c-5.8,0-10-1-12.6-3s-3.9-5-3.9-8.9c0-1,0.1-2.1,0.3-3c0.2-1,0.4-1.9,0.7-2.8l10,0.7
		c-0.2,1-0.3,2.1-0.3,3c0,1.8,0.4,3.1,1.2,4c0.8,0.9,2,1.4,3.8,1.4c1,0,1.8-0.2,2.4-0.5c0.6-0.4,1.1-0.8,1.4-1.3s0.6-1,0.7-1.6
		s0.2-1.1,0.2-1.5c0-1.3-0.4-2.3-1.1-3.1s-2-1.6-3.7-2.4l-5.1-2.4c-1-0.5-2.2-1.1-3.3-1.8c-1.2-0.7-2.3-1.6-3.3-2.7
		c-1-1.1-1.9-2.4-2.6-4s-1-3.4-1-5.6c0-2.3,0.4-4.2,1.3-6c0.9-1.7,2.1-3.2,3.6-4.4s3.3-2.1,5.3-2.7c2-0.6,4.1-0.9,6.4-0.9
		c2.1,0,4.2,0.2,6.1,0.7s3.5,1.2,4.9,2.1c1.4,1,2.5,2.2,3.3,3.6c0.8,1.5,1.2,3.2,1.2,5.2c0,0.9-0.1,1.6-0.2,2.3s-0.3,1.3-0.6,2
		l-9.8-0.2c0.2-0.5,0.3-1,0.3-1.4c0.1-0.5,0.1-1.1,0.1-1.9c0-1.3-0.4-2.3-1.2-3c-0.8-0.7-1.9-1-3.3-1s-2.5,0.4-3.1,1.2
		c-0.7,0.8-1,1.8-1,3c0,1.4,0.5,2.4,1.4,3.2s2.2,1.5,3.8,2.2l6.3,2.7c1.3,0.6,2.6,1.3,3.7,2s2.2,1.6,3,2.7c0.9,1,1.5,2.3,2,3.7
		C1123.6,190.9,1123.9,192.7,1123.9,194.8z"/>
	<path class="st0" d="M674.6,296.3c0,2.9-0.3,5.1-0.9,6.8c-0.6,1.7-1.5,3-2.6,3.9s-2.4,1.5-3.8,1.8c-1.4,0.3-3,0.4-4.6,0.4
		c-1.4,0-2.7-0.1-3.7-0.3c-1-0.2-2-0.5-2.8-0.9s-1.6-1-2.3-1.6s-1.4-1.5-2-2.5c-2.2,2.3-4.3,3.7-6.2,4.4c-1.9,0.7-3.9,1-6,1
		c-2.8,0-5.2-0.5-7.1-1.5s-3.5-2.4-4.7-4c-1.2-1.7-2-3.6-2.6-5.8c-0.5-2.2-0.8-4.5-0.8-6.9c0-4.8,1-9,3.1-12.4s5.1-6.6,9.3-9.6
		l1.4-1c-0.5-1.3-1-2.7-1.4-4.3c-0.4-1.6-0.6-3.7-0.6-6.3c0-2.1,0.4-4.1,1.1-5.8c0.7-1.7,1.7-3.1,2.9-4.3s2.7-2,4.3-2.7
		c1.6-0.6,3.4-0.9,5.3-0.9c1.8,0,3.5,0.3,5.1,0.9c1.6,0.6,2.9,1.5,4,2.6s2,2.4,2.6,3.9s0.9,3.1,0.9,4.9c0,1.5-0.1,2.8-0.4,4.1
		c-0.3,1.2-0.8,2.4-1.6,3.4s-1.9,2-3.2,2.9s-3.1,1.7-5.2,2.5l5,12.7c0.6-1,1.1-2,1.5-2.9s0.8-1.9,1.3-3c0.5-1.2,1-2.7,1.5-4.4
		c0.5-1.7,0.9-3.2,1.2-4.5h7.7c-0.6,2.5-1.3,5-2,7.5c-0.7,2.6-1.6,5-2.7,7.3c-0.4,1-0.8,1.9-1.2,2.7c-0.4,0.8-0.8,1.6-1.2,2.3
		c-0.4,0.8-0.8,1.5-1.2,2.3s-0.9,1.6-1.4,2.6l0.9,2.6c0.3,1,0.8,2,1.4,2.9c0.6,1,1.3,1.4,2.2,1.4c0.4,0,0.8-0.1,1.1-0.4
		s0.5-0.6,0.6-1s0.2-0.8,0.3-1.2c0.1-0.4,0.1-0.8,0.1-1.2c0-0.9-0.1-2.1-0.2-3.5c-0.1-1.4-0.2-2.5-0.4-3.3h7
		c0.3,1.2,0.5,2.6,0.7,4.2C674.6,293.6,674.6,295,674.6,296.3z M640.9,276.6c-2.1,2.6-3.1,5.6-3.1,9.1c0,1.3,0.1,2.7,0.4,4
		c0.2,1.4,0.6,2.6,1.1,3.7s1.1,2,1.9,2.7c0.8,0.7,1.7,1,2.8,1c0.9,0,1.7-0.2,2.5-0.7s1.4-1,1.9-1.6L640.9,276.6z M654,255.5
		c0-1.3-0.2-2.3-0.7-3s-1.3-1.1-2.3-1.1c-0.9,0-1.7,0.2-2.2,0.7s-0.8,1.5-0.8,3c0,1,0.2,2.2,0.7,3.6c0.4,1.3,0.9,2.4,1.3,3.2
		c0.4-0.2,0.8-0.4,1.3-0.7c0.5-0.3,0.9-0.8,1.3-1.3c0.4-0.5,0.8-1.1,1-1.9C653.8,257.3,654,256.4,654,255.5z"/>
	<path class="st0" d="M722.9,307.9v-29.2h-8.3v29.2h-14v-63.3h14v23.5h8.3v-23.5h14v63.3L722.9,307.9L722.9,307.9z"/>
	<path class="st0" d="M764.7,307.9v-7.7c-0.8,2.7-2.1,4.8-3.9,6.3c-1.8,1.5-4.1,2.3-6.9,2.3c-1.3,0-2.6-0.2-3.9-0.7
		c-1.3-0.4-2.4-1.1-3.3-2c-1-0.9-1.7-2.1-2.3-3.5s-0.9-3.1-0.9-5v-37.1h13v33.4c0,1.1,0.2,2,0.7,2.6s1.2,0.9,2.3,0.9
		c1.5,0,2.8-0.8,3.7-2.5c0.9-1.6,1.4-4.1,1.4-7.5v-26.9h13v47.3h-12.9L764.7,307.9L764.7,307.9z"/>
	<path class="st0" d="M826,307.9v-33.5c0-1.1-0.2-1.9-0.7-2.6c-0.5-0.6-1.2-0.9-2.3-0.9c-1.5,0-2.8,0.9-3.7,2.7
		c-0.9,1.8-1.4,4.2-1.4,7.3v27H805v-33.5c0-1.1-0.2-1.9-0.7-2.6c-0.5-0.6-1.2-0.9-2.3-0.9c-1.5,0-2.8,0.8-3.7,2.5s-1.4,4.2-1.4,7.5
		v13.4c0,1.7,0,3.4,0,4.9c0,1.6,0,3,0,4.3s0,2.3,0,3.1c0,0.8,0,1.2,0,1.2h-13v-47.3h12.9v7.7c0.8-2.7,2.1-4.8,3.9-6.3
		c1.8-1.5,4.2-2.3,7-2.3c2.7,0,5,0.7,6.8,2.1c1.9,1.4,3,3.6,3.4,6.5c0.8-2.7,2.1-4.8,3.9-6.3c1.8-1.5,4.1-2.3,6.9-2.3
		c1.3,0,2.6,0.2,3.9,0.7c1.3,0.4,2.4,1.1,3.3,2c1,0.9,1.7,2.1,2.3,3.5s0.9,3.1,0.9,5v37.1L826,307.9L826,307.9z"/>
	<path class="st0" d="M883.3,306.4c-0.3,0.2-0.8,0.5-1.4,0.8c-0.6,0.3-1.3,0.6-2.1,0.8c-0.8,0.2-1.6,0.5-2.6,0.6
		c-0.9,0.2-1.8,0.2-2.6,0.2c-1.6,0-3-0.2-4-0.5s-1.8-0.7-2.3-1.3c-0.6-0.5-1-1.2-1.3-1.9c-0.3-0.7-0.5-1.6-0.7-2.4l-0.7,1.5
		c-0.5,1.1-1.6,2.1-3.2,3.1s-3.7,1.5-6.3,1.5c-2.3,0-4.2-0.4-5.8-1.2c-1.6-0.8-2.8-1.9-3.8-3.3c-1-1.3-1.7-2.9-2.1-4.6
		c-0.4-1.7-0.7-3.4-0.7-5.2c0-4,0.9-7.1,2.8-9.5c1.9-2.4,4.9-4,9-4.8l4.9-1.1c1.3-0.3,2.3-0.6,3-0.9c0.8-0.3,1.4-0.7,1.8-1.2
		c0.4-0.5,0.7-1,0.9-1.7s0.2-1.5,0.2-2.5c0-2.3-0.4-3.8-1.3-4.7c-0.9-0.9-2.2-1.4-3.9-1.4c-1.6,0-2.9,0.5-4,1.4s-1.6,2.1-1.6,3.5
		c0,0.8,0.1,1.5,0.2,2.1c0.1,0.6,0.3,1.2,0.5,1.9l-10.9,0.2c-0.2-0.9-0.4-1.7-0.5-2.4c-0.1-0.7-0.2-1.6-0.2-2.7c0-2.1,0.4-4,1.3-5.4
		c0.9-1.5,2.1-2.7,3.6-3.7s3.3-1.7,5.3-2.1s4.2-0.7,6.5-0.7c3.3,0,6.1,0.3,8.4,0.8c2.3,0.5,4.1,1.2,5.5,2.2s2.4,2,3,3.3
		s0.9,2.7,0.9,4.3v27.5c0,0.9,0.3,1.6,0.9,2c0.6,0.5,1.3,0.7,2.1,0.7c0.4,0,0.8-0.1,1.2-0.2L883.3,306.4L883.3,306.4z M866.3,284.4
		c-0.6,0.3-1.3,0.6-2,0.9s-1.4,0.5-2,0.7c-1.2,0.3-2.1,0.7-2.9,1.1c-0.8,0.4-1.4,0.9-1.8,1.4c-0.4,0.5-0.7,1.2-0.9,2
		s-0.2,1.7-0.2,2.7c0,2.1,0.3,3.7,0.9,4.8c0.6,1.1,1.7,1.7,3.3,1.7c0.8,0,1.5-0.1,2.2-0.3c0.7-0.2,1.3-0.7,1.8-1.4
		c0.5-0.7,0.9-1.8,1.2-3.2c0.3-1.4,0.5-3.3,0.5-5.6L866.3,284.4L866.3,284.4z"/>
	<path class="st0" d="M908.4,307.9v-33.4c0-1.1-0.2-1.9-0.7-2.6c-0.5-0.6-1.2-0.9-2.3-0.9c-1.5,0-2.8,0.9-3.7,2.7
		c-0.9,1.8-1.4,4.2-1.4,7.3v26.9h-13v-47.3h12.9v7.7c0.8-2.7,2.1-4.8,3.9-6.3c1.8-1.5,4.1-2.3,6.9-2.3c1.3,0,2.6,0.2,3.9,0.7
		c1.3,0.4,2.4,1.1,3.3,2c1,0.9,1.7,2.1,2.3,3.5s0.9,3.1,0.9,5V308h-13L908.4,307.9L908.4,307.9z"/>
	<path class="st0" d="M927.4,256.5v-11.9h13v11.9H927.4z M927.4,307.9v-47.3h13v47.3H927.4z"/>
	<path class="st0" d="M974,305.8c-0.4,0.3-1,0.6-1.9,0.9s-1.9,0.6-3.1,0.9s-2.4,0.5-3.7,0.7s-2.6,0.2-3.8,0.2
		c-1.7,0-3.2-0.2-4.6-0.5c-1.4-0.3-2.5-0.9-3.5-1.6c-1-0.8-1.7-1.8-2.2-3c-0.5-1.3-0.8-2.8-0.8-4.7l0.2-29.2h-7v-8.9h7.2l0.3-13
		h12.4v13h9.9v8.9h-9.9v23.9c0,0.9,0.2,1.7,0.5,2.2c0.4,0.5,0.8,1,1.4,1.2c0.6,0.3,1.2,0.5,1.9,0.5c0.7,0.1,1.4,0.1,2,0.1
		c1,0,1.9-0.1,2.7-0.3c0.7-0.2,1.4-0.4,2.1-0.7v9.4H974z"/>
	<path class="st0" d="M978.8,256.5v-11.9h13v11.9H978.8z M978.8,307.9v-47.3h13v47.3H978.8z"/>
	<path class="st0" d="M1009.7,286.8c0,2.6,0.1,4.7,0.3,6.3c0.2,1.6,0.5,2.8,1,3.6c0.4,0.8,1,1.4,1.7,1.6c0.7,0.3,1.5,0.4,2.5,0.4
		c1.8,0,3-0.6,3.7-1.7c0.7-1.2,0.9-2.7,0.8-4.8l-0.2-1.9l11.3,0.3c0.2,0.9,0.2,2.1,0.2,3.5c0,2-0.3,3.9-0.8,5.7
		c-0.5,1.8-1.4,3.3-2.7,4.7c-1.2,1.3-2.8,2.4-4.8,3.1c-2,0.8-4.4,1.2-7.3,1.2c-2.9,0-5.4-0.3-7.7-0.9s-4.3-1.8-5.9-3.6
		c-1.6-1.8-2.9-4.2-3.8-7.3c-0.9-3.1-1.3-7.1-1.3-12.1c0-9.1,1.5-15.7,4.6-19.7c3-4,7.4-6.1,13.1-6.1c5.2,0,9,1.6,11.5,4.9
		c2.5,3.3,4.1,7.9,4.7,13.9c0.2,1.6,0.3,3.2,0.4,4.7s0.2,2.9,0.2,4.4L1009.7,286.8z M1018.4,280.1c-0.1-2.3-0.2-4.2-0.4-5.7
		c-0.1-1.5-0.3-2.6-0.6-3.5s-0.7-1.5-1.2-1.8c-0.5-0.4-1.2-0.5-2-0.5c-1.8,0-2.9,1-3.5,2.9c-0.6,2-1,4.8-1.1,8.6H1018.4z"/>
	<path class="st0" d="M1069,293.6c0,2.5-0.3,4.7-0.9,6.5c-0.6,1.9-1.7,3.5-3.1,4.7c-1.4,1.3-3.3,2.2-5.6,2.8
		c-2.3,0.6-5.1,0.9-8.4,0.9c-5.8,0-10-1-12.6-3s-3.9-5-3.9-8.9c0-1,0.1-2.1,0.3-3s0.4-1.9,0.7-2.8l10,0.7c-0.2,1-0.3,2.1-0.3,3
		c0,1.8,0.4,3.1,1.2,4c0.8,0.9,2,1.4,3.8,1.4c1,0,1.8-0.2,2.4-0.5c0.6-0.4,1.1-0.8,1.4-1.3s0.6-1,0.7-1.6s0.2-1.1,0.2-1.5
		c0-1.3-0.4-2.3-1.1-3.1c-0.7-0.8-2-1.6-3.7-2.4l-5.1-2.4c-1-0.5-2.2-1.1-3.3-1.8c-1.2-0.7-2.3-1.6-3.3-2.7s-1.9-2.4-2.6-4
		s-1-3.4-1-5.6c0-2.3,0.4-4.2,1.3-6c0.9-1.7,2.1-3.2,3.6-4.4c1.5-1.2,3.3-2.1,5.3-2.7s4.1-0.9,6.4-0.9c2.1,0,4.2,0.2,6.1,0.7
		s3.5,1.2,4.9,2.1c1.4,1,2.5,2.2,3.3,3.6c0.8,1.5,1.2,3.2,1.2,5.2c0,0.9-0.1,1.6-0.2,2.3c-0.1,0.7-0.3,1.3-0.6,2l-9.8-0.2
		c0.2-0.5,0.3-1,0.3-1.4c0.1-0.5,0.1-1.1,0.1-1.9c0-1.3-0.4-2.3-1.2-3c-0.8-0.7-1.9-1-3.3-1s-2.5,0.4-3.1,1.2c-0.7,0.8-1,1.8-1,3
		c0,1.4,0.5,2.4,1.4,3.2s2.2,1.5,3.8,2.2l6.3,2.7c1.3,0.6,2.6,1.3,3.7,2c1.2,0.7,2.2,1.6,3,2.7c0.9,1,1.5,2.3,2,3.7
		C1068.8,289.8,1069,291.6,1069,293.6z"/>
</g>
<g id="Layer_1_copy">
	<g>
		<path class="st0" d="M304.8,308.2h2.7c13.4,0,21.1-8.3,21.1-22.9c0-19.4-15.1-21.5-21.6-21.5c-6.5,0-8.7,0.4-8.7,4.8v32.7
			C298.3,307.4,301.5,308.2,304.8,308.2z"/>
		<path class="st0" d="M289.4,233.8c3.1,0,7.2-3.7,10.8-10.1c3.4-5.9,5.7-12.7,5.7-17.1c0-1.9-0.5-5.1-3.7-5.1
			c-7,0-16.5,17.5-16.5,27.4C285.7,232.2,286.9,233.8,289.4,233.8z"/>
		<path class="st0" d="M175.1,285.6c0,13.6,6.9,23,16.7,23c11.1,0,16.9-8,16.9-23c0-12.8-7.2-22.1-16.9-22.1
			C181.7,263.5,175.1,272.2,175.1,285.6z"/>
		<path class="st0" d="M369.8,308.6c11.1,0,16.9-8,16.9-23c0-12.8-7.2-22.1-16.9-22.1c-10.1,0-16.7,8.7-16.7,22.1
			C353.2,299.2,360.1,308.6,369.8,308.6z"/>
		<path class="st0" d="M380.6,205.5c0-1.9-0.8-2.9-2.5-2.9c-2.9,0-5.8,2.9-6.6,3.8c-3,3-5.3,6.3-7.4,10.3c1.9-0.3,4.6-1,8.2-2.1
			C377.4,212.9,380.6,209.4,380.6,205.5z"/>
		<path class="st0" d="M408.7,201.4c-2.9,0-6,2.4-8.4,6.8c-1.6,2.8-2.4,5.3-2.4,7.5c0,2.5,1,4,2.6,4c2.1,0,4.9-0.8,8.5-6.8
			c2.1-3.7,2.5-6.6,2.5-8.3C411.6,202.6,410.6,201.4,408.7,201.4z"/>
		<path class="st0" d="M384.6,241.5c0,2.9,3.4,5.8,10.1,5.8c5.1,0,8.5-2.2,8.5-5.3c0-1.7-0.5-2.7-3.9-4.8c-1.3-0.7-2.8-1.5-4.2-2.2
			c-0.8-0.4-1.5-0.8-2.3-1.2C390.3,234.7,384.6,237.2,384.6,241.5z"/>
		<path class="st0" d="M57,60.8v345h453v-345H57z M414,159.7c0-1.5,0.8-1.8,1.5-1.8c1.1,0,1.4,0.7,1.7,1.5
			c3.4,11.6,13,12.9,16.9,12.9c6,0,12.4-2.9,12.4-11c0-8-5.7-10-13.7-12.8l-0.5-0.2c-8-2.8-16.5-6.8-16.5-17.8
			c0-10.1,9.2-14.6,17.8-14.6c3.7,0,6.2,0.9,8,1.5c1.1,0.4,1.9,0.6,2.6,0.6c0.9,0,1.5-0.5,2-1.8c0.4-0.9,0.9-1,1.2-1
			c0.8,0,1.2,0.4,1.4,1.3l1.8,12.8c0.1,0.5,0,0.8-0.3,1.1s-0.5,0.5-0.9,0.5c-0.6,0-1.1-0.4-1.4-1.1c-3.2-6.4-7.7-9.8-13.7-9.8
			s-9.8,3.2-9.8,8.2c0,5.6,4,9.1,13.6,11.9c11.8,3.4,17.5,9.4,17.5,18.5c0,16.8-15.9,18-20.8,18c-5.7,0-9.8-1.9-12.5-3.1
			c-1.4-0.6-2.5-1.2-3.4-1.2c-0.8,0-1.5,0.7-2.1,2.1c-0.4,0.6-0.8,1-1.4,1c-0.9,0-1.4-0.6-1.4-1.5L414,159.7L414,159.7z
			 M430.5,232.9c4,0,7.4-3.1,10-5.7c0.2-0.2,0.6-0.5,1.2-0.5c0.7,0,1.4,0.6,1.4,1.4c0,0.5-0.3,1-0.5,1.4l0,0l0,0
			c-3.1,3.8-7.5,8.2-15.1,8.2c-5.1,0-8.5-3.5-8.5-8.7c0-14.8,15.1-29.8,26-29.8c4.3,0,6.7,2.1,6.7,5.7c0,5.7-4.7,10.2-13.6,13
			c-2.5,0.8-7.6,1.9-10.4,2.4c-0.8,1.9-1.7,4.3-1.7,7C425.8,230.8,427.6,232.9,430.5,232.9z M416.6,204.4c0.1,0.6,0.3,1.5,0.3,2.9
			c0,2.2-0.5,4.3-1.4,6.5c-2.9,6.2-7.6,9.2-14.1,9.2c-0.7,0-1.6-0.1-2.4-0.3c-0.8-0.1-1.7-0.3-2.4-0.3c-2.6,0-3.9,0.8-3.9,2.4
			c0,1.9,3.7,3.7,8.9,6.3l0.2,0.1c5.7,2.9,8.5,5.8,8.5,9.1c0,6.1-6.3,10.1-15.9,10.1c-9.4,0-16.2-3.9-16.2-9.2c0-5.6,8.6-8.6,12-9.5
			c-2.3-1.7-3.5-3.2-3.5-5.6c0-3.2,3.1-5,6-5.7c1.1-0.3,2-0.5,2-0.8c0-0.1-0.2-0.3-0.3-0.5c-0.1-0.1-0.2-0.3-0.2-0.4
			c-0.5-0.9-1.4-2.8-1.4-5.2c0-2.4,0.5-4.7,3-8.2c3.7-5,9.2-6.8,12.8-6.8c3,0,4.6,0.6,6.2,1.4c0.4,0.2,0.8,0.4,1,0.4
			c0.4,0,0.7-0.2,1.1-0.4c0.1-0.1,0.3-0.1,0.4-0.2c1.8-1.2,3.7-1.7,5.4-1.7c1.9,0,3,0.9,3,2.4c0,1.5-1,2.6-2.4,2.6
			c-0.7,0-1.4-0.3-2.2-0.6c-0.6-0.3-1.4-0.6-2.1-0.6c-1.3,0-2.2,0.5-2.2,1.2C416.5,203.7,416.5,204,416.6,204.4z M232,303
			c0.1,5.6,3.4,6.2,5.9,6.6c0.8,0.2,1.3,0.5,1.3,1.2c0,0.7-0.5,1.2-1.2,1.2h-16.1c-0.4,0-1.1-0.2-1.1-1.2c0-0.6,0.5-1.1,1.3-1.2
			c3.7-0.5,5.3-2.5,5.3-6.6l0.3-35.7c0-3-1.2-4.2-4.8-4.6c-1.1-0.2-1.3-0.8-1.3-1.4c0-0.7,0.5-1.2,1.2-1.2h13.8h0.1l0.1,0.1l32,37.5
			l-0.6-28.6c-0.1-4.7-2-5.9-5.9-6.6c-0.8-0.2-1.3-0.5-1.3-1.2c0-0.7,0.5-1.2,1.2-1.2h16.1c0.6,0,1.1,0.5,1.1,1.2
			c0,0.6-0.5,1.1-1.3,1.2c-3.7,0.5-5.3,2.5-5.3,6.6l-0.3,42.7v0.3h-0.3h-2.8h-0.1l-0.1-0.1l-37.6-44.2L232,303z M279,202.5
			c-0.3,0.7-0.7,1-1.4,1c-0.8,0-1.4-0.6-1.4-1.4c0-0.3,0-0.7,0.1-1.1c0-0.4,0.1-0.7,0.1-1c0-7.2-4-11.4-10.7-11.4
			c-11.5,0-25.5,19.2-25.5,34.9c0,4,1.1,10.7,8.3,10.7c7.7,0,17-5.2,20.7-11.5c0.6-1.1,1.2-1.4,2-1.4c0.5,0,0.8,0.2,1.1,0.5
			c0.2,0.3,0.4,0.8,0,1.6l-5.1,14.8c-0.3,0.5-0.7,0.7-1.4,0.7c-0.6,0-1.2-0.5-1.2-1.4c-0.1-2.1-0.3-3.4-1.2-3.4s-2.1,0.5-3.3,0.9
			c-5.1,2.1-8.5,2.9-12.4,2.9c-9.5,0-15.4-6.3-15.4-16.2c0-8.7,3.7-17.8,10.1-25.2c6.6-7.5,15.2-11.8,23.6-11.8
			c4.9,0,8.9,1.7,11.8,5.1c0.4,0.4,0.5,0.5,0.9,0.5c0.5,0,1.4-1.2,2-2l0.3-0.4c0.5-0.7,0.8-1,1.3-1c0.4,0,0.7,0.2,0.9,0.5
			c0.2,0.3,0.4,0.7,0.1,1.6L279,202.5z M301.7,198.1c5.7,0,9.4,4.5,9.4,11.5c0,6.3-2.4,13.3-6.3,18.8c-4.3,5.9-9.8,9.2-15.2,9.2
			c-5.6,0-9.3-4.6-9.3-11.5C280.3,211.4,290.6,198.1,301.7,198.1z M284.4,262.6c-0.8,0-1.4-0.5-1.4-1.2c0-0.7,0.5-1.2,1.1-1.2h24.5
			c5.6,0,13.7,1,20,5.8c6,4.4,9,11.1,9,19.8c0,9.3-3.4,16.4-10.3,21.1c-7.1,4.9-15.2,5.3-18.4,5.3h-24.7c-0.6,0-1.1-0.5-1.1-1.2
			c0-0.6,0.5-1.1,1.4-1.2c3.6-0.4,5.3-2.4,5.3-6.6v-33.9C289.7,264.9,287.9,262.8,284.4,262.6z M337.2,237.3c-1.2,0.5-2.4,0.5-3,0.5
			c-1.5,0-2.5-1.3-2.5-2.4c0-1.1,0.5-2.4,0.9-3.3c4.4-10.7,8.8-20.7,13.4-31.3c1.5-3.5,3.1-7.1,4.6-10.7c0.2-0.5,0.4-0.9,0.4-1.1
			s-0.1-0.3-0.3-0.4c-0.6-0.2-1.7-0.3-2.5-0.4c-0.3,0-0.5-0.1-0.7-0.1c-0.7,0-1.4-0.5-1.4-1.2c0-0.6,0.6-1.2,1.4-1.4
			c1.2-0.2,2.7-0.3,4.1-0.4c0.7-0.1,1.4-0.1,1.8-0.1c1.4-0.1,3.3-0.3,4.3-0.3c0.7,0,1.2,0.4,1.2,1c0,0.5-0.2,1.1-0.5,1.9l-19.1,44.2
			c0,0.1-0.1,0.2-0.1,0.2c-0.1,0.3-0.2,0.5-0.2,0.6c0,0.1,0,0.1,0.1,0.1c0.2,0,0.6-0.3,0.8-0.4c1.8-1,3.2-2.1,4.2-2.9
			c0.5-0.4,0.8-0.7,1.3-1c0.4-0.3,0.6-0.4,1-0.4c0.6,0,1,0.5,1,1.2c0,0.5-0.2,0.9-0.5,1.3C344.1,233.8,341,235.9,337.2,237.3z
			 M365.4,232.9c4,0,7.4-3.1,10-5.7c0.2-0.2,0.6-0.5,1.2-0.5c0.7,0,1.4,0.6,1.4,1.4c0,0.5-0.3,1-0.5,1.4c-3,3.8-7.5,8.2-15.1,8.2
			c-5,0-8.5-3.6-8.5-8.7c0-14.8,15.1-29.8,26-29.8c4.3,0,6.6,2.1,6.6,5.7c0,5.7-4.7,10.2-13.6,13c-2.5,0.8-7.6,1.9-10.4,2.4
			c-0.8,1.9-1.7,4.3-1.7,7C360.6,230.8,362.4,232.9,365.4,232.9z M369.8,259.8c14.9,0,26.1,11.1,26.1,25.8c0,16-10.5,26.8-26.1,26.8
			c-15.2,0-25.8-11.1-25.8-26.8C344,271.1,355.3,259.8,369.8,259.8z M404.7,116c3.6,0,5.8,2.5,5.8,6.6c0,4.5-2.9,9.7-8.5,10.7
			c-0.1,0-0.2,0-0.3,0c-0.7,0-1.3-0.5-1.3-1.1s0.4-1.1,1-1.4c3.2-1.3,5.1-3.5,5.1-5.9c0-0.2,0-0.3-0.1-0.4c-0.5,0.7-1.6,1.1-2.5,1.1
			c-2.3,0-4.6-1.4-4.6-4.6C399.4,117.2,402.3,116,404.7,116z M343.4,122.9c5.9-4.3,14.1-6.9,22.4-6.9c8.9,0,13.2,2.2,18.4,5.2
			c1,0.6,1.9,1.1,2.4,1.1c1.2,0,1.7-1.4,2-2.3c0.2-0.6,0.5-1.4,1.5-1.4c0.7,0,1.4,0.6,1.4,1.4v13.1c0,0.9-0.6,1.5-1.4,1.5
			c-0.8,0-1.4-0.5-1.9-1.4c-4.3-8.7-11.9-13.1-22.5-13.1c-15.9,0-23,13.9-23,26.7c0,12.8,6.8,25.6,22.1,25.6c3.5,0,8.2-0.5,12.8-3.7
			c1.1-0.9,1.9-1.9,1.9-4v-7.4c0-4.3-3.2-5.3-8.5-5.7c-1,0-1.7-0.7-1.7-1.7c0-0.8,0.7-1.4,1.7-1.4h24.6c1.1,0,1.4,0.7,1.4,1.4
			c0,0.9-0.5,1.5-1.2,1.5l0,0c-3.4,0.3-6.6,0.9-6.6,5.5V168v0.1l-0.1,0.1c-3.8,3.2-12.1,8.6-24.3,8.6c-8.6,0-16.5-2.3-22-6.4
			c-7.1-5.3-10.6-13.2-10.6-23.7C332.2,136.4,336,128.3,343.4,122.9z M331.5,185.3c0.7-0.1,1.4-0.1,1.8-0.1c1.4-0.1,3.3-0.3,4.3-0.3
			c0.7,0,1.2,0.4,1.2,1c0,0.5-0.2,1.1-0.5,1.9L319.1,232c0,0.1-0.1,0.2-0.1,0.2c-0.1,0.3-0.2,0.5-0.2,0.6c0,0.1,0,0.1,0.1,0.1
			s0.5-0.1,0.8-0.4c1.8-1,3.2-2.1,4.2-2.9c0.5-0.4,0.8-0.7,1.3-1c0.4-0.3,0.6-0.4,1-0.4c0.6,0,1,0.5,1,1.2c0,0.5-0.2,0.9-0.5,1.3
			c-2.5,3-5.6,5.2-9.4,6.5c-1.2,0.5-2.4,0.5-3,0.5c-1.5,0-2.5-1.3-2.5-2.4c0-1,0.5-2.4,0.9-3.3c4.4-10.7,8.8-20.7,13.4-31.3
			c1.5-3.5,3.1-7.2,4.7-10.8c0.2-0.5,0.4-0.9,0.4-1.1s-0.1-0.3-0.3-0.4c-0.6-0.2-1.7-0.3-2.5-0.4c-0.3,0-0.5-0.1-0.8-0.1
			c-0.8,0-1.4-0.5-1.4-1.2c0-0.6,0.6-1.2,1.4-1.4C328.7,185.5,330.2,185.4,331.5,185.3z M261.3,173.6c4.3-0.5,5.5-2.3,5.8-8.4
			c0.5-13,0.5-29.1,0.5-40.9c0-3.7-3.2-5-5.8-5.3c-1-0.2-1.5-0.6-1.5-1.4c0-0.7,0.6-1.2,1.5-1.2H277h0.1l0.1,0.1l38,42.6
			c0-3.8-0.2-24-0.7-31.5c-0.5-6.9-3.1-7.8-7-8.4c-0.6-0.1-1.2-0.7-1.2-1.4c0-0.7,0.5-1.4,1.1-1.4h18.4c1,0,1.5,0.5,1.5,1.2
			c0,0.8-0.5,1.3-1.5,1.4c-4.3,0.5-5.5,2.3-5.8,8.4c-0.5,12.8-0.5,48.3-0.5,48.7v0.3h-0.3h-2.8h-0.1l-0.1-0.1l-44.5-49.6
			c0,4.4,0.3,30.9,0.7,38.5c0.5,6.9,3.1,7.8,7,8.4c0.6,0.1,1.2,0.7,1.2,1.4c0,0.7-0.5,1.4-1.1,1.4h-18.4c-1,0-1.5-0.5-1.5-1.2
			C259.8,174.2,260.3,173.8,261.3,173.6z M229.1,119c-1-0.2-1.5-0.6-1.5-1.4c0-0.7,0.6-1.2,1.5-1.2h21.5c1,0,1.5,0.5,1.5,1.2
			c0,0.8-0.5,1.3-1.5,1.4c-4.3,0.5-5.8,2.4-5.8,7.3v40c0,4.8,1.5,6.8,5.8,7.3c1,0.2,1.5,0.6,1.5,1.4c0,0.7-0.6,1.2-1.5,1.2h-21.5
			c-1,0-1.5-0.5-1.5-1.2c0-0.8,0.5-1.3,1.5-1.4c4.3-0.5,5.8-2.4,5.8-7.3v-40C234.9,121.5,233.4,119.5,229.1,119z M112.3,235
			c0-1.2,0.9-1.9,2.3-2.1c4.7-0.7,11.9-1.8,12.3-15.4c0.3-5.7,0.4-17.9,0.4-33.6c0-23.7-0.1-44.1-0.3-48.3
			c-0.5-13.6-7.6-14.7-12.3-15.4c-1.4-0.1-2.3-0.9-2.3-2.1s1-1.9,2.5-1.9c0.5,0,1.9,0,3.9,0.1c4.3,0.1,11.7,0.3,17.8,0.3
			c10.1,0,13.9,0,22.2-0.4c1.2,0,2.1,0.8,2.1,1.9c0,1.3-0.7,2-2.3,2.3c-13,1.8-14.2,7.2-14.3,14.1c-0.3,15-0.4,37.1-0.4,38.1
			c0,0.4,0.1,1.4,0.7,1.4c0.4,0,0.6-0.1,1.1-0.5c4.8-4,19.4-18.4,30.6-30c4.8-5,7.9-8.8,10.6-13c1-1.5,1.9-3.3,1.9-5.3
			c0-2-1.1-2.7-2.9-3.4c-1.6-0.6-3.2-0.9-4.7-1.2c-0.3-0.1-0.5-0.1-0.8-0.2c-1.5-0.3-2.5-1.2-2.5-2.3c0-1.3,1.1-2.2,2.8-2.2
			c0.5,0,1.5,0,3.1,0.1c3.6,0.1,9.6,0.3,16.5,0.3c3.3,0,7.7-0.1,11.2-0.3c2.6-0.1,4.9-0.2,6.1-0.2c1.6,0,2.7,0.8,2.7,2.2
			c0,1.1-0.5,1.7-1.6,2.1c-5,1.2-10.1,2.4-23.8,14.9c-10.9,9.8-30.1,29.4-33.9,33.6c2.6,3.1,42.6,50.7,49.8,56.5
			c7.2,5.7,10.8,6.9,16.7,7.5c1.1,0,1.9,1,1.9,2.2c0,1.2-0.6,1.8-1.9,1.8h-31h-0.1l-0.1-0.1c-14.5-17.5-40-47.8-48.3-54.8
			c-0.6-0.5-1.4-0.8-2.2-0.8c-0.6,0-1.7,0.3-1.8,2.2c-0.1,1.5-0.3,8.9-0.3,16.9c0,8,0.3,15.3,0.5,18.1c0.7,7.7,3.4,12.5,15.8,14.1
			c1.5,0.3,2.3,1,2.3,2.3c0,1.1-0.9,1.9-2.1,1.9c-8.2-0.4-13.4-0.4-23.6-0.4c-6.1,0-13.4,0.2-17.8,0.3c-2,0.1-3.4,0.1-3.9,0.1
			C113.2,237,112.3,236.3,112.3,235z M217.9,285.6c0,16-10.5,26.8-26.1,26.8c-15.2,0-25.8-11.1-25.8-26.8
			c0-14.5,11.3-25.8,25.8-25.8C206.8,259.8,217.9,270.8,217.9,285.6z M115.6,310.9c0-0.6,0.6-1.2,1.3-1.2l0,0
			c3.6-0.4,5.3-2.4,5.3-6.6v-33.9c0-4.3-1.7-6.3-5.3-6.6c-0.7,0-1.4-0.5-1.4-1.2c0-0.7,0.5-1.2,1.1-1.2h19.8c0.8,0,1.4,0.5,1.4,1.4
			c0,0.6-0.5,1.1-1.4,1.2c-1.7,0.1-5.9,0.7-5.9,5.2v35.2c0,3.8,1.4,5.3,10.7,5.3c8.3,0,14.6-0.8,18.4-11.6c0.3-0.7,0.9-1.1,1.5-1.1
			c0.5,0,0.7,0.2,1,0.5c0.3,0.4,0.4,0.8,0.2,1.4l-2.7,14.4v0.2h-0.2h-42.7C116.1,312,115.6,311.5,115.6,310.9z M450.5,345.8v8.5v0.3
			h-0.3H116.6h-0.3v-0.3v-8.5v-0.3h0.3h333.6h0.3V345.8z M450.5,330.1v4.3v0.3h-0.3H116.6h-0.3v-0.3v-4.3v-0.3h0.3h333.6h0.3V330.1z
			 M456,262.6c-3.7,0.5-5.3,2.5-5.3,6.6l-0.3,42.7v0.3h-0.3h-2.8h-0.1l-0.1-0.1l-37.6-44.2l0.4,35.3c0.1,5.6,3.4,6.2,5.9,6.6
			c0.8,0.2,1.3,0.5,1.3,1.2c0,0.7-0.5,1.2-1.2,1.2h-16.1c-0.4,0-1.1-0.2-1.1-1.2c0-0.6,0.5-1.1,1.3-1.2c3.7-0.5,5.3-2.5,5.3-6.6
			l0.3-35.7c0-3-1.2-4.2-4.8-4.6c-1.1-0.2-1.3-0.8-1.3-1.4c0-0.7,0.5-1.2,1.2-1.2h13.8h0.1l0.1,0.1l32,37.5l-0.6-28.6
			c-0.1-4.7-1.9-5.9-5.9-6.6c-0.8-0.2-1.3-0.5-1.3-1.2c0-0.7,0.5-1.2,1.2-1.2h16.1c0.6,0,1.1,0.5,1.1,1.2
			C457.3,261.9,456.8,262.4,456,262.6z"/>
		<path class="st0" d="M445.9,205.5c0-1.9-0.8-2.9-2.5-2.9c-2.8,0-5.8,2.9-6.6,3.8c-3,3-5.3,6.3-7.3,10.3c1.9-0.3,4.6-1,8.2-2.1
			C442.5,212.9,445.9,209.4,445.9,205.5z"/>
	</g>
</g>
</svg>
